<svg xmlns="http://www.w3.org/2000/svg" xmlns:xlink="http://www.w3.org/1999/xlink" width="2000" zoomAndPan="magnify" viewBox="0 0 1500 1499.999933" height="2000" preserveAspectRatio="xMidYMid meet" version="1.0"><defs><clipPath id="6b3ac938dc"><path d="M 23.007812 29.371094 L 1477 29.371094 L 1477 1470.871094 L 23.007812 1470.871094 Z M 23.007812 29.371094 " clip-rule="nonzero"/></clipPath></defs><rect x="-150" width="1800" fill="#ffffff" y="-149.999993" height="1799.99992" fill-opacity="1"/><rect x="-150" width="1800" fill="#ffffff" y="-149.999993" height="1799.99992" fill-opacity="1"/><g clip-path="url(#6b3ac938dc)"><path fill="#f59e0b" d="M 752.472656 1013.71875 C 754.511719 1041.515625 763.945312 1066.394531 779.296875 1087.546875 C 796.25 1110.828125 820.066406 1128.753906 847.796875 1138.339844 L 941.867188 1138.339844 C 969.570312 1128.753906 993.382812 1110.796875 1010.367188 1087.546875 C 1025.378906 1066.925781 1035.40625 1041.074219 1037.191406 1014 C 1040.828125 972.074219 1023.496094 930.429688 995.703125 902.695312 C 930.242188 837.140625 820.816406 850.835938 773.03125 929.269531 C 757.832031 954.117188 750.34375 983.167969 752.472656 1013.71875 Z M 247.59375 474.804688 C 235.433594 474.804688 225.65625 465.03125 225.65625 452.964844 C 225.65625 440.808594 235.433594 431.03125 247.59375 431.03125 L 612.121094 431.03125 C 624.21875 431.03125 634.058594 440.808594 634.058594 452.964844 C 634.058594 465.0625 624.1875 474.804688 612.121094 474.804688 Z M 247.59375 682.3125 C 235.433594 682.3125 225.65625 672.535156 225.65625 660.375 C 225.65625 648.3125 235.433594 638.441406 247.59375 638.441406 L 429.871094 638.441406 C 441.96875 638.441406 451.808594 648.3125 451.808594 660.375 C 451.808594 672.535156 441.9375 682.3125 429.871094 682.3125 Z M 247.59375 578.558594 C 235.433594 578.558594 225.65625 568.78125 225.65625 556.625 C 225.65625 544.558594 235.433594 534.6875 247.59375 534.6875 L 514.324219 534.6875 C 526.417969 534.6875 536.257812 544.558594 536.257812 556.625 C 536.257812 568.78125 526.386719 578.558594 514.324219 578.558594 Z M 766.890625 1139.25 C 738.375 1112.332031 718.664062 1076.796875 711.363281 1037.628906 L 595.355469 1037.628906 C 588.085938 1076.796875 568.34375 1112.332031 539.828125 1139.25 C 587.429688 1144.234375 629.105469 1171.589844 653.359375 1211.480469 C 677.613281 1171.558594 719.257812 1144.199219 766.890625 1139.25 Z M 675.292969 1289.691406 L 675.292969 1426.316406 L 1114.371094 1426.316406 L 1114.371094 1289.691406 C 1114.371094 1230.625 1065.957031 1182.210938 1006.984375 1182.210938 L 782.714844 1182.210938 C 723.707031 1182.242188 675.292969 1230.625 675.292969 1289.691406 Z M 653.359375 1470.125 L 170.414062 1470.125 C 158.316406 1470.125 148.570312 1460.347656 148.570312 1448.191406 L 148.570312 1289.722656 C 148.570312 1212.105469 207.734375 1147.242188 284.035156 1139.25 C 255.519531 1112.332031 235.808594 1076.796875 228.507812 1037.628906 L 100.691406 1037.628906 C 57.886719 1037.628906 22.882812 1002.625 22.882812 959.820312 L 22.882812 275.226562 C 22.882812 232.421875 57.886719 197.421875 100.691406 197.421875 L 970.476562 197.421875 C 997.050781 99.96875 1085.417969 29.460938 1188.980469 29.460938 C 1314.574219 29.460938 1415.570312 132.492188 1415.570312 258.183594 L 1415.570312 485.398438 C 1415.570312 500.40625 1410.339844 514.257812 1401.722656 525.289062 C 1426.851562 538.792969 1446.03125 555.496094 1459.816406 579.90625 C 1470.660156 599.273438 1476.519531 621.550781 1476.519531 645.460938 L 1476.800781 1015.691406 C 1476.800781 1027.789062 1467.023438 1037.535156 1454.960938 1037.535156 L 1454.960938 1037.628906 L 1078.304688 1037.628906 C 1071.035156 1076.796875 1051.292969 1112.332031 1022.777344 1139.25 C 1098.984375 1147.242188 1158.242188 1212.074219 1158.242188 1289.722656 L 1158.242188 1448.191406 C 1158.242188 1460.347656 1148.371094 1470.125 1136.308594 1470.125 Z M 1081.15625 993.726562 L 1151.410156 993.726562 L 1027.507812 774.691406 C 1023.875 768.203125 1023.875 760.652344 1026.789062 754.445312 L 1043.679688 714.746094 L 1003.003906 709.855469 C 992.601562 708.601562 984.703125 700.265625 983.734375 690.300781 L 964.554688 558.128906 C 873.777344 575.082031 793.210938 591.78125 684.757812 612.589844 L 684.757812 715.902344 L 918.367188 715.902344 C 948.042969 715.902344 972.105469 739.875 972.011719 769.738281 L 971.917969 833.601562 C 1034.433594 862.023438 1077.488281 923.222656 1081.15625 993.726562 Z M 928.175781 820 L 928.269531 769.738281 C 928.269531 764.128906 924.101562 759.804688 918.335938 759.804688 L 662.792969 759.804688 C 658.625 759.804688 654.707031 758.644531 651.417969 756.609375 L 604.507812 756.609375 C 525.101562 756.609375 483.800781 659.875 540.832031 602.84375 C 557.191406 586.488281 579.75 576.367188 604.507812 576.367188 L 650.445312 576.367188 C 653.296875 574.484375 656.492188 573.167969 660.035156 572.730469 C 730.570312 559.320312 791.769531 547.222656 842.566406 537.195312 C 893.832031 527.167969 934.410156 519.175781 968.535156 512.847656 C 964.617188 504.511719 962.394531 495.175781 962.394531 485.398438 L 962.394531 339.183594 L 164.269531 339.183594 L 164.269531 895.863281 L 259.5 895.863281 C 333.921875 790.859375 489.910156 790.796875 564.273438 895.863281 L 742.445312 895.863281 C 783.746094 837.488281 855.539062 806.839844 928.175781 820 Z M 719.445312 939.734375 L 587.273438 939.734375 C 593.476562 956.6875 597.207031 974.832031 598.207031 993.726562 L 708.542969 993.726562 C 709.480469 974.832031 713.304688 956.6875 719.445312 939.734375 Z M 458.921875 1138.339844 C 558.570312 1103.621094 586.832031 976.679688 512.851562 902.695312 C 447.296875 837.140625 337.871094 850.835938 290.082031 929.269531 C 260.15625 978.308594 262.539062 1041.105469 296.476562 1087.546875 C 313.367188 1110.828125 337.148438 1128.753906 364.882812 1138.339844 Z M 524.035156 1182.242188 L 299.828125 1182.242188 C 240.761719 1182.242188 192.347656 1230.65625 192.347656 1289.722656 L 192.347656 1426.347656 L 631.425781 1426.347656 L 631.425781 1289.722656 C 631.425781 1230.625 583.105469 1182.242188 524.035156 1182.242188 Z M 225.5625 993.726562 C 226.535156 974.800781 230.359375 956.6875 236.5625 939.734375 L 142.335938 939.734375 C 130.238281 939.734375 120.402344 929.957031 120.402344 917.800781 L 120.402344 317.25 C 120.402344 305.089844 130.269531 295.316406 142.335938 295.316406 L 962.363281 295.316406 C 962.363281 279.332031 961.828125 256.867188 962.988281 241.324219 L 100.691406 241.324219 C 82.140625 241.324219 66.753906 256.613281 66.753906 275.261719 L 66.753906 959.851562 C 66.753906 978.496094 82.109375 993.789062 100.691406 993.789062 L 225.5625 993.789062 Z M 1276.222656 515.855469 L 1274.433594 493.640625 C 1244.226562 519.742188 1209.164062 530.332031 1175.320312 529.707031 C 1149.5625 529.171875 1124.679688 519.398438 1102.839844 502.164062 L 1101.773438 514.949219 L 1189.074219 679.273438 Z M 1272.460938 428.460938 C 1272.898438 427.644531 1273.433594 426.863281 1273.964844 426.046875 C 1290.226562 398.410156 1302.199219 360.054688 1306.835938 308.695312 L 1308.777344 266.671875 C 1265.066406 275.007812 1228.121094 268.710938 1192.960938 239.757812 C 1157.425781 266.671875 1117.378906 284.253906 1072.414062 284.253906 C 1070.46875 284.253906 1072.601562 277.671875 1071.253906 280.617188 C 1069.46875 284.347656 1069.121094 295.378906 1069.121094 315.621094 C 1069.121094 364.660156 1082.097656 406.839844 1102.339844 437.234375 C 1102.964844 438.019531 1103.59375 438.925781 1104.125 439.898438 C 1123.929688 468.414062 1149.78125 485.460938 1175.976562 485.992188 C 1214.300781 486.714844 1248.769531 467.253906 1272.460938 428.460938 Z M 1314.386719 443.46875 L 1318.835938 498.902344 C 1330.402344 500.691406 1341.679688 502.976562 1352.492188 506.015625 C 1357.632812 505.765625 1362.363281 503.542969 1365.714844 500.0625 C 1369.351562 496.332031 1371.667969 491.195312 1371.667969 485.398438 L 1371.667969 258.183594 C 1371.667969 156.402344 1290.382812 73.332031 1188.949219 73.332031 C 1086.703125 73.332031 1006.230469 157.09375 1006.230469 258.183594 L 1006.230469 485.398438 C 1006.230469 490.378906 1007.828125 494.796875 1010.492188 498.277344 C 1012.53125 500.847656 1015.195312 502.976562 1018.234375 504.324219 C 1032.804688 502.003906 1046.214844 500.15625 1059.09375 498.652344 L 1062.636719 456.476562 C 1039.792969 419.6875 1025.253906 371.023438 1025.253906 315.683594 C 1025.253906 289.203125 1026.410156 273.503906 1031.644531 262.222656 C 1040.074219 244.363281 1051.980469 240.476562 1072.414062 240.476562 C 1111.675781 240.476562 1149.6875 221.019531 1179.269531 194.726562 L 1211.761719 164.363281 C 1220.097656 155.652344 1233.980469 155.402344 1242.660156 163.734375 C 1251.339844 172.070312 1251.621094 185.953125 1243.285156 194.632812 C 1237.679688 200.398438 1232.289062 205.570312 1226.679688 210.613281 C 1254.914062 230.855469 1284.585938 229.539062 1320.84375 218.886719 C 1334.066406 214.875 1346.789062 222.804688 1349.265625 235.496094 L 1352.367188 256.898438 C 1353.339844 267.207031 1351.394531 300.421875 1350.332031 312.582031 C 1345.410156 367.949219 1332.34375 410.945312 1314.386719 443.46875 Z M 1409.617188 585.046875 L 1394.074219 691.273438 C 1392.570312 701.300781 1384.582031 708.695312 1374.992188 709.824219 L 1334.316406 714.714844 L 1351.550781 755.386719 C 1354.308594 761.875 1353.589844 768.890625 1350.394531 774.5625 L 1350.394531 774.660156 L 1226.492188 993.695312 L 1433.085938 993.695312 L 1432.804688 645.398438 C 1432.804688 622.460938 1424.910156 601.402344 1409.617188 585.046875 Z M 1311.820312 542.050781 L 1210.917969 731.351562 L 1210.917969 932.464844 L 1307.023438 762.4375 L 1283.398438 706.566406 C 1276.191406 691.273438 1285.964844 676.359375 1300.285156 674.664062 L 1353.148438 668.367188 L 1369.320312 558.222656 C 1351.363281 550.230469 1331.277344 545 1311.820312 542.050781 Z M 1007.671875 550.417969 L 1024.8125 668.367188 L 1077.675781 674.664062 L 1077.675781 674.757812 C 1091.808594 676.359375 1100.867188 691.648438 1095.257812 704.875 L 1070.816406 762.4375 L 1167.015625 932.464844 L 1167.015625 731.289062 L 1066.367188 541.832031 C 1048.628906 543.839844 1029.546875 546.691406 1007.671875 550.417969 Z M 640.824219 712.769531 L 640.824219 620.203125 L 604.507812 620.203125 C 563.988281 620.203125 542.429688 669.683594 571.824219 699.078125 C 580.253906 707.503906 591.816406 712.769531 604.507812 712.769531 Z M 640.824219 712.769531 " fill-opacity="1" fill-rule="nonzero"/></g></svg>