<svg xmlns="http://www.w3.org/2000/svg" xmlns:xlink="http://www.w3.org/1999/xlink" width="2000" zoomAndPan="magnify" viewBox="0 0 1500 1499.999933" height="2000" preserveAspectRatio="xMidYMid meet" version="1.0"><defs><clipPath id="40094f18bf"><path d="M 45.324219 45.324219 L 1476.324219 45.324219 L 1476.324219 1476.324219 L 45.324219 1476.324219 Z M 45.324219 45.324219 " clip-rule="nonzero"/></clipPath></defs><g clip-path="url(#40094f18bf)"><path fill="#f59e0b" d="M 760.789062 1476.253906 C 1154.851562 1476.253906 1476.253906 1154.851562 1476.253906 760.789062 C 1476.253906 366.722656 1154.851562 45.324219 760.789062 45.324219 C 366.722656 45.324219 45.324219 366.722656 45.324219 760.789062 C 45.324219 1154.851562 366.722656 1476.253906 760.789062 1476.253906 Z M 760.789062 1476.253906 " fill-opacity="1" fill-rule="evenodd"/></g><path fill="#ffffff" d="M 645.183594 828.0625 L 858.1875 862.929688 C 903.628906 870.367188 925.84375 921.859375 911.324219 959.554688 C 925.257812 954.449219 939.3125 946.421875 954.105469 935.792969 L 1087.070312 840.234375 C 1133.640625 806.765625 1204.691406 833.890625 1214.355469 876.34375 C 1218.222656 893.335938 1212.441406 911.003906 1192.089844 925.628906 L 930.625 1113.539062 C 906.683594 1130.75 879.785156 1137.078125 850.699219 1132.320312 L 657.71875 1100.730469 C 636.785156 1097.304688 617.695312 1101.761719 600.484375 1114.128906 L 589.640625 1121.921875 L 605.824219 1144.441406 C 610.824219 1151.394531 609.097656 1160.972656 602.117188 1165.863281 L 602.121094 1165.871094 L 534.300781 1212.769531 C 528.066406 1217.074219 519.746094 1216.09375 514.664062 1210.796875 L 514.65625 1210.796875 C 514.65625 1210.796875 310.363281 998.0625 310.363281 998.0625 C 303.878906 991.316406 304.871094 980.394531 312.78125 974.886719 L 413.6875 903.058594 C 420.863281 897.949219 430.308594 900.03125 435.253906 907.09375 L 450.976562 928.976562 L 565.261719 846.84375 C 589.207031 829.636719 616.101562 823.308594 645.183594 828.066406 Z M 696.203125 700.898438 C 690.238281 694.933594 690.238281 685.253906 696.203125 679.285156 C 702.171875 673.320312 711.847656 673.320312 717.816406 679.285156 L 747.300781 708.773438 L 817.074219 638.996094 C 823.042969 633.03125 832.722656 633.03125 838.6875 638.996094 C 844.65625 644.964844 844.65625 654.644531 838.6875 660.609375 L 758.105469 741.1875 C 752.140625 747.160156 742.460938 747.160156 736.492188 741.1875 Z M 767.445312 798.519531 C 827.332031 798.519531 875.875 749.976562 875.875 690.089844 C 875.875 630.203125 827.332031 581.664062 767.445312 581.664062 C 707.558594 581.664062 659.015625 630.203125 659.015625 690.089844 C 659.015625 749.976562 707.558594 798.519531 767.445312 798.519531 Z M 767.445312 829.089844 C 824.785156 829.089844 876.082031 793.921875 896.90625 740.792969 C 1030.359375 764.6875 1154.496094 662.191406 1154.496094 525.15625 C 1154.496094 404.1875 1056.421875 306.117188 935.453125 306.117188 C 800.300781 306.117188 697.96875 427.148438 719.160156 559.71875 C 664.769531 579.871094 628.453125 631.824219 628.453125 690.089844 C 628.453125 766.851562 690.6875 829.085938 767.449219 829.085938 Z M 748.886719 552.328125 C 840.953125 540.042969 918.8125 619.511719 904.855469 711.183594 C 1019.554688 729.742188 1123.925781 641.707031 1123.925781 525.15625 C 1123.925781 421.0625 1039.546875 336.683594 935.453125 336.683594 C 820.316406 336.683594 732.613281 438.710938 748.886719 552.328125 Z M 920.167969 424.9375 C 920.167969 416.496094 927.011719 409.652344 935.453125 409.652344 C 943.890625 409.652344 950.734375 416.496094 950.734375 424.9375 L 950.734375 525.15625 C 950.734375 531.199219 947.226562 536.425781 942.132812 538.902344 L 878 575.929688 C 870.714844 580.148438 861.382812 577.664062 857.164062 570.378906 C 852.945312 563.089844 855.429688 553.761719 862.71875 549.539062 L 920.167969 516.367188 L 920.167969 424.929688 Z M 811.945312 423.257812 C 805.976562 417.292969 805.976562 407.613281 811.945312 401.648438 C 817.910156 395.679688 827.589844 395.679688 833.554688 401.648438 L 844.015625 412.109375 C 849.984375 418.074219 849.984375 427.753906 844.015625 433.71875 C 838.046875 439.691406 828.371094 439.691406 822.402344 433.71875 L 811.941406 423.261719 Z M 776.066406 540.4375 C 767.628906 540.4375 760.78125 533.59375 760.78125 525.15625 C 760.78125 516.714844 767.628906 509.871094 776.066406 509.871094 L 790.859375 509.871094 C 799.300781 509.871094 806.144531 516.714844 806.144531 525.15625 C 806.144531 533.59375 799.300781 540.4375 790.859375 540.4375 Z M 950.734375 684.542969 C 950.734375 692.980469 943.890625 699.824219 935.453125 699.824219 C 927.011719 699.824219 920.167969 692.980469 920.167969 684.542969 L 920.167969 669.75 C 920.167969 661.308594 927.011719 654.464844 935.453125 654.464844 C 943.890625 654.464844 950.734375 661.308594 950.734375 669.75 Z M 1058.957031 627.050781 C 1064.929688 633.019531 1064.929688 642.699219 1058.957031 648.664062 C 1052.992188 654.632812 1043.3125 654.632812 1037.347656 648.664062 L 1026.886719 638.207031 C 1020.917969 632.238281 1020.917969 622.5625 1026.886719 616.59375 C 1032.855469 610.628906 1042.53125 610.628906 1048.496094 616.59375 L 1058.957031 627.054688 Z M 1094.835938 509.871094 C 1103.273438 509.871094 1110.121094 516.71875 1110.121094 525.15625 C 1110.121094 533.597656 1103.273438 540.441406 1094.835938 540.441406 L 1080.042969 540.441406 C 1071.601562 540.441406 1064.757812 533.597656 1064.757812 525.15625 C 1064.757812 516.71875 1071.601562 509.871094 1080.042969 509.871094 Z M 1037.347656 401.648438 C 1043.316406 395.679688 1052.996094 395.679688 1058.960938 401.648438 C 1064.929688 407.613281 1064.929688 417.292969 1058.960938 423.257812 L 1048.503906 433.71875 C 1042.535156 439.6875 1032.859375 439.6875 1026.890625 433.71875 C 1020.925781 427.746094 1020.925781 418.074219 1026.890625 412.105469 L 1037.351562 401.644531 Z M 920.167969 365.769531 C 920.167969 357.332031 927.011719 350.484375 935.453125 350.484375 C 943.890625 350.484375 950.734375 357.332031 950.734375 365.769531 L 950.734375 380.5625 C 950.734375 389.003906 943.890625 395.847656 935.453125 395.847656 C 927.011719 395.847656 920.167969 389.003906 920.167969 380.5625 Z M 509.097656 1062.03125 L 419.007812 936.679688 L 344.570312 989.667969 L 527.652344 1180.3125 L 572.042969 1149.617188 Z M 468.746094 953.703125 L 571.867188 1097.1875 C 588.597656 1085.164062 599.84375 1076.683594 620.75 1071.777344 C 634.113281 1068.640625 648.082031 1068.257812 662.609375 1070.636719 L 855.59375 1102.226562 C 876.527344 1105.652344 895.617188 1101.191406 912.832031 1088.824219 L 1174.296875 900.914062 C 1187.324219 891.554688 1187.53125 882.796875 1179.074219 873.386719 C 1163.203125 855.730469 1127.984375 848.332031 1104.859375 864.949219 L 971.894531 960.507812 C 935.097656 986.957031 899.007812 1001.816406 854.707031 994.765625 L 751.558594 977.882812 C 743.25 976.527344 737.613281 968.699219 738.964844 960.390625 C 740.316406 952.082031 748.148438 946.441406 756.457031 947.792969 L 858.386719 964.476562 C 869.890625 964.136719 877.355469 959.152344 881.253906 952.125 C 891.972656 932.820312 880.507812 897.480469 853.289062 893.019531 L 640.28125 858.152344 C 619.351562 854.726562 600.261719 859.183594 583.046875 871.558594 Z M 468.746094 953.703125 " fill-opacity="1" fill-rule="evenodd"/></svg>