<svg xmlns="http://www.w3.org/2000/svg" xmlns:xlink="http://www.w3.org/1999/xlink" width="2000" zoomAndPan="magnify" viewBox="0 0 1500 1499.999933" height="2000" preserveAspectRatio="xMidYMid meet" version="1.0"><defs><clipPath id="cf653d65b1"><path d="M 1 1092 L 439 1092 L 439 1486.3125 L 1 1486.3125 Z M 1 1092 " clip-rule="nonzero"/></clipPath><clipPath id="6193d86d80"><path d="M 1064 1092 L 1500 1092 L 1500 1486.3125 L 1064 1486.3125 Z M 1064 1092 " clip-rule="nonzero"/></clipPath><clipPath id="17a6531b8b"><path d="M 249 1362 L 1254 1362 L 1254 1486.3125 L 249 1486.3125 Z M 249 1362 " clip-rule="nonzero"/></clipPath><clipPath id="f3d4beb03d"><path d="M 993 14.0625 L 1056 14.0625 L 1056 132 L 993 132 Z M 993 14.0625 " clip-rule="nonzero"/></clipPath><clipPath id="92a67ad1af"><path d="M 446 14.0625 L 510 14.0625 L 510 132 L 446 132 Z M 446 14.0625 " clip-rule="nonzero"/></clipPath><clipPath id="614ba36240"><path d="M 720 14.0625 L 783 14.0625 L 783 132 L 720 132 Z M 720 14.0625 " clip-rule="nonzero"/></clipPath></defs><path fill="#f59e0b" d="M 1280.582031 1099.632812 C 1342.207031 1099.632812 1392.347656 1049.488281 1392.347656 987.867188 L 1392.347656 947.246094 C 1392.347656 885.597656 1342.207031 835.484375 1280.582031 835.484375 C 1218.960938 835.484375 1168.816406 885.625 1168.816406 947.246094 L 1168.816406 987.867188 C 1168.816406 1049.515625 1218.960938 1099.632812 1280.582031 1099.632812 Z M 1280.582031 1099.632812 " fill-opacity="1" fill-rule="nonzero"/><path fill="#f59e0b" d="M 110.347656 947.21875 L 110.347656 987.839844 C 110.347656 1049.488281 160.488281 1099.605469 222.109375 1099.605469 C 283.734375 1099.605469 333.875 1049.460938 333.875 987.839844 L 333.875 947.21875 C 333.875 885.570312 283.734375 835.457031 222.109375 835.457031 C 160.488281 835.457031 110.347656 885.597656 110.347656 947.21875 Z M 110.347656 947.21875 " fill-opacity="1" fill-rule="nonzero"/><g clip-path="url(#cf653d65b1)"><path fill="#f59e0b" d="M 146.175781 1243.308594 C 152.980469 1240.042969 161.058594 1242.902344 164.324219 1249.648438 L 217.023438 1359.074219 C 225.375 1376.539062 243.25 1387.941406 262.59375 1388.15625 L 397.078125 1390.359375 C 419.765625 1390.359375 438.429688 1371.5625 438.429688 1348.433594 C 438.429688 1325.308594 419.765625 1306.539062 396.859375 1306.539062 L 273.992188 1306.539062 C 267.953125 1306.539062 262.621094 1302.566406 260.933594 1296.742188 L 221.648438 1161.71875 C 217.378906 1147.625 209.921875 1135 200.507812 1124.605469 C 174.28125 1120.472656 150.695312 1108.992188 131.484375 1092.3125 C 130.804688 1092.285156 130.425781 1092.203125 129.335938 1092.203125 C 105.53125 1092.203125 82.597656 1101.046875 64.777344 1117.125 C 47.007812 1133.121094 35.9375 1154.996094 33.597656 1178.75 L 1.222656 1487.761719 L 222.003906 1487.761719 L 222.003906 1403.472656 C 209.460938 1395.691406 199.066406 1384.511719 192.511719 1370.828125 L 139.8125 1261.429688 C 136.546875 1254.65625 139.402344 1246.519531 146.175781 1243.28125 Z M 146.175781 1243.308594 " fill-opacity="1" fill-rule="nonzero"/></g><g clip-path="url(#6193d86d80)"><path fill="#f59e0b" d="M 1437.945312 1117.179688 C 1420.097656 1101.074219 1397.164062 1092.230469 1373.355469 1092.230469 C 1372.269531 1092.230469 1371.886719 1092.3125 1371.207031 1092.339844 C 1352 1109.019531 1328.410156 1120.5 1302.183594 1124.632812 C 1292.769531 1135 1285.316406 1147.652344 1281.019531 1161.878906 L 1241.757812 1296.742188 C 1240.070312 1302.566406 1234.738281 1306.539062 1228.699219 1306.539062 L 1105.835938 1306.539062 C 1082.898438 1306.539062 1064.261719 1325.308594 1064.261719 1348.433594 C 1064.261719 1371.5625 1082.925781 1390.359375 1105.835938 1390.359375 L 1240.015625 1388.15625 C 1259.414062 1387.914062 1277.316406 1376.511719 1285.644531 1359.101562 L 1338.367188 1249.648438 C 1341.660156 1242.902344 1349.796875 1240.015625 1356.515625 1243.308594 C 1363.289062 1246.546875 1366.148438 1254.683594 1362.882812 1261.457031 L 1310.183594 1370.882812 C 1303.652344 1384.539062 1293.234375 1395.71875 1280.71875 1403.5 L 1280.71875 1487.789062 L 1501.5 1487.789062 L 1469.125 1178.828125 C 1466.757812 1155.023438 1455.683594 1133.148438 1437.945312 1117.179688 Z M 1437.945312 1117.179688 " fill-opacity="1" fill-rule="nonzero"/></g><g clip-path="url(#17a6531b8b)"><path fill="#f59e0b" d="M 1106.078125 1417.59375 C 1072.589844 1417.59375 1044.753906 1393.707031 1038.445312 1362.066406 L 464.304688 1362.066406 C 457.992188 1393.707031 430.1875 1417.59375 396.886719 1417.59375 L 262.242188 1415.390625 C 257.832031 1415.335938 253.480469 1414.792969 249.207031 1414.003906 L 249.207031 1487.789062 L 1253.511719 1487.789062 L 1253.511719 1413.976562 C 1249.214844 1414.765625 1244.859375 1415.335938 1240.425781 1415.390625 Z M 1106.078125 1417.59375 " fill-opacity="1" fill-rule="nonzero"/></g><g clip-path="url(#f3d4beb03d)"><path fill="#f59e0b" d="M 993.632812 99.953125 C 993.632812 117.09375 1007.566406 131.050781 1024.703125 131.050781 C 1041.84375 131.050781 1055.800781 117.09375 1055.800781 99.953125 L 1055.800781 46.03125 C 1055.800781 28.890625 1041.84375 14.933594 1024.703125 14.933594 C 1007.5625 14.933594 993.632812 28.890625 993.632812 46.03125 L 993.632812 79.875 C 993.632812 80.066406 993.742188 80.230469 993.742188 80.390625 C 993.742188 80.554688 993.632812 80.746094 993.632812 80.910156 Z M 993.632812 99.953125 " fill-opacity="1" fill-rule="nonzero"/></g><g clip-path="url(#92a67ad1af)"><path fill="#f59e0b" d="M 446.863281 99.953125 C 446.863281 117.09375 460.792969 131.050781 477.933594 131.050781 C 495.074219 131.050781 509.03125 117.09375 509.03125 99.953125 L 509.03125 46.03125 C 509.03125 28.890625 495.074219 14.933594 477.933594 14.933594 C 460.792969 14.933594 446.863281 28.890625 446.863281 46.03125 L 446.863281 80.203125 C 446.863281 80.203125 446.863281 80.285156 446.863281 80.335938 C 446.863281 80.390625 446.863281 80.417969 446.863281 80.472656 L 446.863281 99.980469 Z M 446.863281 99.953125 " fill-opacity="1" fill-rule="nonzero"/></g><g clip-path="url(#614ba36240)"><path fill="#f59e0b" d="M 782.402344 46.003906 C 782.402344 28.863281 768.472656 14.90625 751.332031 14.90625 C 734.191406 14.90625 720.234375 28.863281 720.234375 46.003906 L 720.234375 99.925781 C 720.234375 117.066406 734.191406 131.023438 751.332031 131.023438 C 768.472656 131.023438 782.402344 117.066406 782.402344 99.925781 L 782.402344 80.582031 C 782.402344 80.582031 782.375 80.445312 782.375 80.390625 C 782.375 80.335938 782.402344 80.257812 782.402344 80.203125 Z M 782.402344 46.003906 " fill-opacity="1" fill-rule="nonzero"/></g><path fill="#f59e0b" d="M 1268.664062 93.914062 L 1083.007812 93.914062 L 1083.007812 99.953125 C 1083.007812 132.113281 1056.863281 158.257812 1024.703125 158.257812 C 992.546875 158.257812 966.429688 132.113281 966.429688 99.953125 L 966.429688 93.996094 L 809.609375 93.996094 L 809.609375 99.953125 C 809.609375 132.113281 783.464844 158.257812 751.332031 158.257812 C 719.203125 158.257812 693.03125 132.113281 693.03125 99.953125 L 693.03125 93.996094 L 536.210938 93.996094 L 536.210938 99.953125 C 536.210938 132.113281 510.066406 158.257812 477.90625 158.257812 C 445.75 158.257812 419.628906 132.113281 419.628906 99.953125 L 419.628906 93.914062 L 234.082031 93.914062 C 231.144531 93.914062 228.75 96.308594 228.75 99.246094 L 228.75 226.355469 C 228.75 229.265625 231.144531 231.660156 234.082031 231.660156 L 1268.640625 231.660156 C 1271.578125 231.660156 1273.945312 229.265625 1273.945312 226.355469 L 1273.945312 99.246094 C 1273.945312 96.308594 1271.578125 93.914062 1268.640625 93.914062 Z M 1268.664062 93.914062 " fill-opacity="1" fill-rule="nonzero"/><path fill="#f59e0b" d="M 1273.945312 704.648438 L 1273.945312 264.226562 C 1273.945312 261.289062 1271.550781 258.894531 1268.613281 258.894531 L 234.054688 258.894531 C 231.117188 258.894531 228.75 261.289062 228.75 264.226562 L 228.75 704.648438 C 228.75 707.585938 231.117188 709.980469 234.054688 709.980469 L 1268.613281 709.980469 C 1271.550781 709.980469 1273.945312 707.585938 1273.945312 704.648438 Z M 1195.886719 548.78125 C 1195.886719 556.289062 1189.792969 562.382812 1182.285156 562.382812 L 320.382812 562.382812 C 312.871094 562.382812 306.777344 556.289062 306.777344 548.78125 L 306.777344 420.121094 C 306.777344 412.613281 312.871094 406.515625 320.382812 406.515625 L 1182.285156 406.515625 C 1189.792969 406.515625 1195.886719 412.613281 1195.886719 420.121094 Z M 1195.886719 548.78125 " fill-opacity="1" fill-rule="nonzero"/><path fill="#f59e0b" d="M 1023.535156 433.695312 L 1168.683594 433.695312 L 1168.683594 535.148438 L 1023.535156 535.148438 Z M 1023.535156 433.695312 " fill-opacity="1" fill-rule="nonzero"/><path fill="#f59e0b" d="M 333.984375 433.695312 L 479.292969 433.695312 L 479.292969 535.148438 L 333.984375 535.148438 Z M 333.984375 433.695312 " fill-opacity="1" fill-rule="nonzero"/><path fill="#f59e0b" d="M 851.179688 433.695312 L 996.300781 433.695312 L 996.300781 535.148438 L 851.179688 535.148438 Z M 851.179688 433.695312 " fill-opacity="1" fill-rule="nonzero"/><path fill="#f59e0b" d="M 678.855469 433.695312 L 823.972656 433.695312 L 823.972656 535.148438 L 678.855469 535.148438 Z M 678.855469 433.695312 " fill-opacity="1" fill-rule="nonzero"/><path fill="#f59e0b" d="M 506.5 433.695312 L 651.648438 433.695312 L 651.648438 535.148438 L 506.5 535.148438 Z M 506.5 433.695312 " fill-opacity="1" fill-rule="nonzero"/></svg>