<svg xmlns="http://www.w3.org/2000/svg" xmlns:xlink="http://www.w3.org/1999/xlink" width="2000" zoomAndPan="magnify" viewBox="0 0 1500 1499.999933" height="2000" preserveAspectRatio="xMidYMid meet" version="1.0"><defs><clipPath id="f986f45e87"><path d="M 22.238281 75 L 1477.988281 75 L 1477.988281 1425 L 22.238281 1425 Z M 22.238281 75 " clip-rule="nonzero"/></clipPath></defs><g clip-path="url(#f986f45e87)"><path fill="#f59e0b" d="M 1466.371094 816.496094 C 1463.121094 815.242188 1459.871094 813.992188 1456.648438 812.738281 C 1450.003906 810.1875 1443.363281 807.636719 1436.863281 804.796875 C 1422.859375 798.660156 1409.1875 791.585938 1395.398438 784.96875 C 1366.328125 771.035156 1336.101562 756.617188 1311.695312 735.175781 C 1294.417969 719.964844 1280.507812 700.253906 1278.292969 676.816406 C 1275.957031 652.003906 1286.355469 627.9375 1299.351562 607.410156 C 1309.316406 591.667969 1321.371094 577.398438 1333.621094 563.414062 C 1339.832031 556.339844 1346.113281 549.3125 1352.25 542.191406 C 1355.039062 538.941406 1357.785156 535.621094 1360.625 532.371094 C 1363.558594 529 1369 524.8125 1370.660156 520.722656 C 1368.203125 520.144531 1365.460938 521.011719 1362.980469 521.300781 C 1359.757812 521.683594 1356.507812 522.023438 1353.28125 522.40625 C 1346.832031 523.152344 1340.382812 523.921875 1333.933594 524.695312 C 1321.589844 526.160156 1309.265625 527.675781 1296.921875 529.144531 C 1272.515625 532.058594 1248.113281 534.824219 1223.613281 536.894531 C 1200.054688 538.890625 1176.542969 540.746094 1152.980469 537.832031 C 1132.695312 535.332031 1109.832031 531.121094 1092.09375 520.410156 C 1061.578125 501.949219 1057.582031 464.601562 1073.753906 434.949219 C 1085.523438 413.363281 1098.640625 392.449219 1110.914062 371.152344 C 1123.140625 349.925781 1135.269531 328.652344 1147.253906 307.304688 C 1160.632812 283.527344 1174.738281 260.085938 1184.699219 234.625 C 1187.082031 228.535156 1189.367188 222.421875 1191.726562 216.335938 C 1192.667969 213.878906 1195.046875 210.390625 1195.046875 207.792969 C 1195.046875 205.023438 1191.4375 204.253906 1189.199219 203.097656 C 1184.722656 200.789062 1180.273438 198.382812 1175.796875 196.023438 C 1173.195312 194.652344 1170.597656 193.28125 1168 191.90625 C 1165.519531 190.609375 1162.175781 187.746094 1159.3125 187.816406 C 1156.230469 190.441406 1155.003906 196.457031 1153.367188 200.136719 C 1151.25 204.855469 1149.15625 209.574219 1147.035156 214.289062 C 1143.042969 223.242188 1139.046875 232.195312 1135.027344 241.171875 C 1127.277344 258.5 1119.53125 275.851562 1111.804688 293.179688 C 1104.128906 310.386719 1096.449219 327.570312 1088.75 344.777344 C 1085.019531 353.125 1081.289062 361.5 1077.535156 369.851562 C 1075.488281 374.449219 1073.441406 379.046875 1071.375 383.640625 C 1070.53125 385.519531 1067.257812 395.457031 1065.117188 394.351562 C 1064.777344 390.644531 1066.871094 386 1067.761719 382.464844 C 1068.773438 378.445312 1069.785156 374.449219 1070.773438 370.429688 C 1072.722656 362.679688 1074.644531 354.957031 1076.59375 347.207031 C 1078.617188 339.191406 1080.613281 331.179688 1082.636719 323.140625 C 1083.742188 318.761719 1084.828125 314.378906 1085.933594 310 C 1086.921875 306.101562 1089.328125 301.09375 1088.894531 297.125 C 1084.753906 298.230469 1080.351562 302.757812 1076.8125 305.234375 C 1073.730469 307.402344 1070.628906 309.566406 1067.546875 311.734375 C 1060.277344 316.8125 1052.960938 321.816406 1045.621094 326.75 C 1029.933594 337.292969 1014.070312 347.566406 997.851562 357.242188 C 965.867188 376.277344 932.273438 392.933594 896.605469 403.929688 C 882.480469 408.285156 868.207031 412.0625 853.382812 412.929688 C 839.929688 413.699219 826.40625 412.785156 813.046875 411.078125 C 786.429688 407.683594 760.246094 401.136719 734.617188 393.292969 C 719.429688 388.648438 704.414062 383.449219 689.613281 377.699219 C 681.550781 373.488281 672.648438 369.5625 664.65625 364.773438 C 655.078125 359.023438 647.136719 350.695312 638.859375 343.285156 C 620.566406 326.847656 602.351562 310.335938 584.179688 293.753906 C 566.011719 277.175781 547.914062 260.519531 529.863281 243.84375 C 521.007812 235.660156 512.148438 227.453125 503.292969 219.246094 C 499.179688 215.445312 495.59375 211.859375 492.585938 207.09375 C 491.40625 205.242188 490.324219 203.316406 489.238281 201.390625 C 487.988281 199.175781 486.90625 195.636719 484.617188 194.339844 C 482.453125 195.0625 480.214844 197.011719 478.601562 198.550781 C 476.363281 200.691406 476.628906 202.546875 476.773438 205.457031 C 477.039062 210.726562 477.207031 216.023438 477.207031 221.316406 C 477.230469 232.988281 475.304688 244.613281 474.003906 256.1875 C 471.480469 278.929688 469.191406 301.699219 465.703125 324.320312 C 462.71875 343.714844 459.78125 364.003906 451.914062 382.125 C 445.894531 396.035156 436.96875 408.574219 425.632812 418.660156 C 419.710938 423.929688 413.191406 428.5 406.308594 432.398438 C 402.648438 434.445312 398.894531 436.296875 395.070312 437.984375 C 393.3125 438.753906 390.855469 440.316406 388.980469 440.65625 C 385.539062 441.257812 384.9375 437.359375 383.636719 434.855469 C 374.566406 417.117188 365.5625 399.355469 356.707031 381.523438 C 339.378906 346.628906 321.980469 311.683594 301.5 278.496094 C 289.753906 259.460938 277 241.027344 262.875 223.699219 C 259.289062 219.320312 255.628906 214.988281 251.875 210.75 C 250.261719 208.921875 248.625 207.117188 246.964844 205.3125 C 244.945312 203.097656 242.707031 199.65625 240.277344 197.925781 C 236.425781 195.203125 228.554688 202.882812 225.113281 205.121094 C 225.113281 208.082031 212.863281 210.824219 211.78125 214.097656 C 210.3125 218.550781 216.257812 226.972656 218.207031 231.039062 C 224.105469 243.265625 230.625 255.175781 237.605469 266.800781 C 252.042969 290.820312 268.554688 313.515625 286.074219 335.367188 C 300.945312 353.921875 316.515625 371.945312 332.0625 389.921875 C 339.910156 398.996094 347.777344 408.046875 355.550781 417.191406 C 359.210938 421.472656 362.84375 425.757812 366.453125 430.066406 C 368.523438 432.542969 370.59375 435 372.640625 437.503906 C 374.371094 439.621094 377.546875 442.050781 378.125 444.792969 C 374.515625 447.417969 366.910156 447.488281 362.605469 448.210938 C 358.175781 448.957031 353.746094 449.582031 349.296875 450.089844 C 339.71875 451.195312 330.089844 451.773438 320.464844 451.917969 C 301.332031 452.183594 282.222656 450.59375 263.28125 447.898438 C 245.136719 445.347656 227.160156 441.785156 209.230469 438.007812 C 200.398438 436.15625 191.566406 434.230469 182.734375 432.351562 C 178.355469 431.414062 173.972656 430.5 169.59375 429.609375 C 165.839844 428.839844 159.558594 426.3125 155.875 427.25 C 156.042969 430.402344 158.644531 433.773438 159.992188 436.5625 C 161.554688 439.8125 163.121094 443.039062 164.707031 446.261719 C 168.269531 453.507812 171.878906 460.75 175.464844 467.96875 C 182.203125 481.542969 188.917969 495.164062 195.222656 508.953125 C 206.007812 532.585938 218.785156 558.167969 216.933594 584.859375 C 213.175781 639.152344 156.140625 663.746094 112.941406 682.734375 C 98.71875 688.992188 84.496094 695.128906 69.671875 699.820312 C 62.1875 702.203125 54.628906 704.347656 47.074219 706.511719 C 42.886719 707.714844 38.675781 708.894531 34.488281 710.121094 C 30.757812 711.207031 25.292969 711.855469 22.140625 714.117188 C 25.199219 717.246094 31.597656 718.640625 35.640625 720.421875 C 40.144531 722.394531 44.667969 724.371094 49 726.679688 C 58.746094 731.828125 68.25 737.484375 77.902344 742.804688 C 98.574219 754.1875 120.019531 765.617188 138.140625 780.902344 C 152.484375 792.980469 162.976562 810.285156 157.078125 829.417969 C 150.75 849.96875 131.304688 864.53125 114.699219 876.660156 C 104.300781 884.265625 93.519531 891.339844 82.980469 898.753906 C 78.09375 902.167969 73.234375 905.515625 68.105469 908.570312 C 65.820312 909.941406 63.488281 911.265625 61.199219 912.613281 C 58.578125 914.128906 54.101562 915.742188 52.222656 918.199219 C 55.425781 919.714844 60.140625 919.472656 63.605469 919.929688 C 67.167969 920.386719 70.753906 920.84375 74.316406 921.324219 L 96.867188 924.238281 C 112.21875 926.234375 127.574219 928.207031 142.90625 930.207031 C 157.945312 932.15625 172.964844 934.105469 188.003906 936.054688 L 211.011719 939.039062 C 214.667969 939.519531 218.328125 939.976562 221.984375 940.457031 C 225.644531 940.941406 232.019531 940.53125 235.148438 942.503906 C 233.394531 946.765625 227.375 951 224.128906 954.320312 C 220.277344 958.265625 216.425781 962.238281 212.574219 966.183594 C 205.355469 973.597656 198.160156 981.011719 190.941406 988.421875 C 176.695312 1003.054688 162.445312 1017.6875 148.199219 1032.34375 C 134.578125 1046.347656 120.957031 1060.332031 107.335938 1074.339844 C 103.796875 1077.996094 100.234375 1081.628906 96.699219 1085.289062 C 95.230469 1086.804688 92.199219 1089.019531 91.113281 1090.773438 C 89.476562 1093.445312 90.96875 1094.3125 93.015625 1096.308594 C 96.3125 1099.535156 99.394531 1103 102.570312 1106.347656 C 105.289062 1109.210938 108.898438 1114.9375 112.535156 1116.261719 C 116.695312 1114 120.113281 1107.40625 123.074219 1103.699219 C 125.984375 1100.066406 128.898438 1096.40625 131.808594 1092.773438 C 138.164062 1084.832031 144.515625 1076.863281 150.847656 1068.921875 C 163.359375 1053.257812 175.875 1037.589844 188.390625 1021.921875 C 200.710938 1006.496094 213.03125 991.070312 225.355469 975.617188 C 230.914062 968.664062 236.667969 961.804688 242.007812 954.679688 C 245.355469 950.230469 246.726562 951 251.296875 953.140625 C 255.292969 955.019531 259.3125 956.847656 263.234375 958.917969 C 283.789062 969.769531 303.089844 985.414062 310.140625 1008.371094 C 318.105469 1034.339844 309.683594 1062.28125 299.960938 1086.515625 C 292.210938 1105.839844 282.632812 1124.371094 273.101562 1142.855469 C 268.335938 1152.09375 263.667969 1161.386719 259.046875 1170.675781 C 257.289062 1174.234375 255.339844 1177.675781 253.296875 1181.070312 C 250.863281 1185.113281 246.316406 1190.046875 245.328125 1194.621094 C 249.15625 1194.164062 253.730469 1191.226562 257.242188 1189.664062 C 260.902344 1188.027344 264.558594 1186.390625 268.214844 1184.730469 C 276.109375 1181.144531 283.980469 1177.507812 291.875 1173.921875 C 306.578125 1167.234375 321.378906 1160.664062 336.539062 1155.03125 C 368.355469 1143.191406 401.15625 1138.257812 434.875 1135.753906 C 446.785156 1134.863281 461.925781 1131.445312 473.113281 1137.34375 C 481.632812 1141.84375 484.929688 1151.203125 485.964844 1160.253906 C 487.820312 1176.402344 486.183594 1193.367188 486.207031 1209.613281 C 486.207031 1228.457031 486.398438 1247.324219 486.6875 1266.167969 C 487.242188 1302.003906 488.203125 1337.8125 489.335938 1373.625 C 489.71875 1386.234375 488.613281 1400.144531 491.621094 1412.515625 C 493.113281 1418.628906 496.605469 1421.972656 503.027344 1421.972656 C 506.953125 1421.972656 510.875 1421.082031 514.675781 1420.167969 C 517.636719 1419.46875 520.550781 1418.601562 523.484375 1417.832031 C 524.566406 1417.542969 526.949219 1417.328125 527.722656 1416.820312 C 530.296875 1415.1875 529.597656 1413.40625 529.261719 1410.539062 C 527.191406 1392.515625 526.085938 1374.320312 524.519531 1356.222656 C 521.414062 1320.269531 518.3125 1284.3125 515.207031 1248.359375 C 513.425781 1227.734375 511.644531 1207.109375 509.863281 1186.484375 C 509.453125 1181.792969 509.140625 1177.050781 508.613281 1172.382812 C 508.492188 1171.398438 507.867188 1168.386719 508.515625 1167.113281 C 509.71875 1164.753906 513.210938 1164.609375 514.675781 1166.003906 C 516 1167.257812 516.265625 1170.554688 516.820312 1172.214844 C 517.660156 1174.742188 518.550781 1177.269531 519.441406 1179.773438 C 520.910156 1183.984375 522.402344 1188.171875 523.871094 1192.382812 C 530.34375 1210.9375 535.808594 1229.539062 538.261719 1249.082031 C 539.488281 1258.902344 540.210938 1268.792969 540.835938 1278.660156 C 541.125 1283.183594 541.390625 1287.683594 541.679688 1292.207031 C 541.96875 1296.613281 541.222656 1303.878906 543.125 1307.804688 C 546.46875 1306.40625 549.957031 1301.570312 552.507812 1299.019531 C 555.347656 1296.179688 558.1875 1293.316406 561.003906 1290.453125 C 567.214844 1284.144531 573.398438 1277.816406 579.632812 1271.558594 C 591.28125 1259.886719 603.214844 1248.457031 616.089844 1238.132812 C 638.207031 1220.347656 664.417969 1205.691406 693.269531 1203.765625 C 754.929688 1199.648438 795.433594 1255.171875 824.382812 1301.761719 C 833.984375 1317.210938 843.082031 1333 852.515625 1348.570312 C 857.355469 1356.535156 862.359375 1364.335938 866.355469 1372.78125 C 868.183594 1376.632812 869.890625 1380.554688 871.578125 1384.476562 C 873.308594 1388.472656 874.824219 1394.535156 877.664062 1397.785156 C 879.0625 1394.535156 878.820312 1390.324219 879.230469 1386.835938 C 879.6875 1382.9375 880.121094 1379.039062 880.503906 1375.140625 C 881.277344 1367.800781 881.972656 1360.433594 882.648438 1353.09375 C 884.089844 1337.644531 885.511719 1322.171875 887.507812 1306.769531 C 889.433594 1291.917969 891.914062 1277.117188 895.472656 1262.582031 C 897.207031 1255.507812 899.203125 1248.480469 901.492188 1241.550781 C 902.71875 1237.867188 904.019531 1234.183594 905.4375 1230.550781 C 906.6875 1227.300781 907.894531 1221.71875 910.46875 1219.238281 C 912.851562 1222.851562 913.164062 1229.132812 914.101562 1233.320312 C 915.207031 1238.253906 916.269531 1243.1875 917.277344 1248.121094 C 919.277344 1257.914062 921.128906 1267.757812 922.980469 1277.574219 C 924.8125 1287.203125 926.0625 1297.261719 928.710938 1306.695312 C 929.578125 1309.824219 931.308594 1312.160156 933.5 1314.519531 C 935.6875 1316.828125 939.226562 1321.425781 942.113281 1322.554688 C 944.136719 1320.101562 945.410156 1315.335938 946.566406 1312.375 C 947.578125 1309.753906 948.492188 1307.03125 948.46875 1304.21875 C 948.421875 1300.148438 946.757812 1295.554688 945.84375 1291.605469 C 944.808594 1287.179688 943.726562 1282.773438 942.621094 1278.347656 C 938.433594 1261.574219 933.789062 1244.917969 929.289062 1228.242188 C 924.402344 1210.191406 918.625 1184.632812 941.679688 1176.957031 C 953.425781 1173.058594 967.070312 1174.476562 979.105469 1175.898438 C 994.074219 1177.679688 1009.113281 1181.3125 1022.542969 1188.292969 C 1052.074219 1203.644531 1079.867188 1223.140625 1107.449219 1241.667969 C 1123.117188 1252.1875 1138.710938 1262.800781 1154.402344 1273.269531 C 1160.777344 1277.527344 1167.179688 1281.714844 1173.292969 1286.335938 C 1175.964844 1288.359375 1178.613281 1290.402344 1181.257812 1292.449219 C 1184.652344 1295.070312 1188.597656 1299.234375 1192.523438 1300.800781 C 1191.679688 1295.988281 1188.191406 1290.835938 1186.121094 1286.382812 C 1183.546875 1280.847656 1180.945312 1275.3125 1178.347656 1269.804688 C 1173.992188 1260.5625 1169.636719 1251.34375 1165.472656 1242.007812 C 1157.097656 1223.308594 1149.324219 1204.199219 1144.65625 1184.199219 C 1142.128906 1173.394531 1140.46875 1162.324219 1140.226562 1151.207031 C 1140.035156 1141.890625 1141.742188 1134.9375 1147.496094 1127.453125 C 1157.746094 1114.121094 1174.519531 1101.703125 1192.089844 1107.210938 C 1202.4375 1110.4375 1209.96875 1118.621094 1218.105469 1125.335938 C 1226.503906 1132.265625 1235.214844 1138.835938 1244.046875 1145.238281 C 1253.265625 1151.902344 1262.601562 1158.378906 1271.914062 1164.898438 C 1280.074219 1170.601562 1287.605469 1177.605469 1297.617188 1179.457031 C 1300.554688 1180.011719 1302 1180.347656 1303.539062 1177.390625 C 1305.03125 1174.5 1304.066406 1173.609375 1301.613281 1171.855469 C 1296.582031 1168.292969 1291.265625 1165.066406 1286.164062 1161.625 C 1275.960938 1154.792969 1265.753906 1147.980469 1255.550781 1141.144531 C 1245.730469 1134.574219 1235.9375 1128.03125 1226.117188 1121.460938 C 1223.761719 1119.894531 1221.425781 1118.308594 1219.066406 1116.742188 C 1217.046875 1115.394531 1213.484375 1114.046875 1212.136719 1111.976562 C 1210.835938 1109.980469 1211.992188 1106.707031 1213.84375 1105.046875 C 1216.226562 1102.90625 1220.246094 1105 1223.183594 1105.671875 C 1247.152344 1111.328125 1271.144531 1116.765625 1295.140625 1122.328125 C 1307.292969 1125.140625 1319.445312 1127.957031 1331.574219 1130.773438 C 1338.242188 1132.3125 1344.910156 1133.855469 1351.574219 1135.394531 C 1354.726562 1136.117188 1357.878906 1136.863281 1361.058594 1137.585938 C 1364.183594 1138.304688 1368.109375 1140.039062 1371.308594 1139.703125 C 1369.839844 1135.898438 1365.316406 1132.289062 1362.644531 1129.160156 C 1360.550781 1126.730469 1358.457031 1124.300781 1356.386719 1121.820312 C 1350.683594 1114.914062 1345.511719 1107.550781 1340.070312 1100.449219 C 1328.421875 1085.214844 1316.511719 1070.152344 1305.558594 1054.410156 C 1288.183594 1029.457031 1271.484375 1001.394531 1267.320312 970.710938 C 1264.191406 947.75 1270.160156 925.394531 1284.910156 907.464844 C 1299.785156 889.390625 1320.359375 876.851562 1341.707031 867.082031 C 1348.207031 864.097656 1354.777344 861.378906 1361.273438 858.828125 C 1381.585938 850.886719 1402.472656 844.53125 1423.265625 837.960938 C 1432.871094 834.929688 1442.375 831.585938 1452.003906 828.601562 C 1455.417969 827.542969 1458.886719 826.578125 1462.328125 825.617188 C 1466.921875 824.339844 1473.613281 823.738281 1477.535156 821.089844 C 1474.816406 818.78125 1469.617188 817.675781 1466.296875 816.375 Z M 672.863281 273.804688 C 670.890625 244.394531 668.820312 211.980469 672.984375 182.738281 C 675.679688 182.136719 678.902344 182.882812 681.574219 184.109375 C 681.863281 184.230469 682.683594 184.304688 682.898438 184.542969 C 683.355469 185.050781 683.453125 188.128906 683.5 188.492188 C 684.800781 197.78125 686.125 207.070312 687.421875 216.335938 C 690.046875 234.890625 692.644531 253.421875 695.148438 272 C 697.652344 290.554688 700.082031 309.132812 702.320312 327.710938 C 702.847656 332.042969 703.355469 336.402344 703.859375 340.734375 C 704.125 343.019531 704.917969 345.738281 704.703125 348.167969 C 704.605469 349.203125 704.316406 350.214844 703.738281 351.082031 C 702.246094 353.34375 699.816406 355.050781 697.699219 356.6875 C 696.230469 357.820312 694.714844 358.878906 693.246094 359.984375 C 692.117188 360.851562 690.625 362.703125 689.203125 362.875 C 687.183594 359.890625 686.53125 354.835938 685.546875 351.320312 C 684.582031 347.929688 683.691406 344.511719 682.851562 341.070312 C 681.046875 333.707031 679.480469 326.269531 678.183594 318.785156 C 675.558594 303.910156 673.875 288.871094 672.863281 273.804688 Z M 992.703125 156.023438 C 995.253906 161.441406 996.71875 167.3125 997.273438 173.28125 C 997.5625 176.503906 997.609375 179.730469 997.441406 182.957031 C 997.371094 184.496094 997.25 186.035156 997.082031 187.550781 C 996.9375 188.996094 996 191.667969 996.480469 192.992188 C 999.464844 191.570312 1002.109375 188.875 1004.976562 187.144531 C 1007.71875 185.480469 1010.582031 184.015625 1013.542969 182.785156 C 1018.8125 180.597656 1024.421875 179.199219 1030.125 178.863281 C 1035.371094 178.550781 1040.617188 179.105469 1045.695312 180.476562 C 1048.171875 181.148438 1050.628906 182.015625 1052.988281 183.050781 C 1054.164062 183.558594 1055.34375 184.109375 1056.476562 184.734375 C 1057.4375 185.242188 1058.691406 186.445312 1059.796875 186.371094 C 1061.242188 183.964844 1061.578125 179.921875 1062.277344 177.203125 C 1062.949219 174.554688 1063.625 171.886719 1064.296875 169.238281 C 1065.742188 163.582031 1067.1875 157.925781 1068.628906 152.296875 C 1070.050781 146.710938 1071.492188 141.105469 1072.914062 135.519531 C 1073.5625 132.921875 1074.238281 130.347656 1074.886719 127.746094 C 1075.585938 124.980469 1077.054688 121.636719 1077.054688 118.820312 C 1076.089844 118.265625 1074.332031 118.820312 1073.203125 118.84375 C 1071.757812 118.84375 1070.3125 118.820312 1068.894531 118.699219 C 1066.199219 118.457031 1063.527344 117.976562 1060.953125 117.207031 C 1055.707031 115.640625 1050.84375 112.996094 1046.535156 109.625 C 1041.53125 105.726562 1037.296875 100.9375 1033.589844 95.789062 C 1031.496094 92.875 1029.59375 89.84375 1027.8125 86.738281 C 1026.753906 84.886719 1025.742188 83.007812 1024.78125 81.109375 C 1023.867188 79.277344 1023.167969 76.945312 1021.917969 75.332031 C 1020.953125 76.945312 1020.90625 80.097656 1020.472656 81.949219 C 1020.039062 83.777344 1019.558594 85.609375 1019.003906 87.414062 C 1017.921875 90.949219 1016.597656 94.417969 1014.9375 97.738281 C 1011.976562 103.632812 1007.933594 108.976562 1002.808594 113.164062 C 990.992188 122.789062 977.660156 122.667969 964.0625 126.953125 C 974.605469 136.554688 986.25 142.285156 992.703125 156.074219 Z M 1000.332031 132.800781 C 1001.101562 128.855469 1011.90625 121.683594 1014.914062 118.820312 C 1016.238281 117.566406 1017.5625 116.292969 1018.886719 115.039062 C 1019.824219 114.152344 1021.484375 111.695312 1022.832031 111.574219 C 1023.988281 111.453125 1025.429688 112.972656 1026.273438 113.5 C 1027.789062 114.464844 1029.328125 115.402344 1030.847656 116.363281 C 1036.40625 119.828125 1041.917969 123.367188 1047.5 126.785156 C 1048.269531 127.265625 1050.148438 127.867188 1050.507812 128.855469 C 1050.917969 130.011719 1049.640625 132.25 1049.304688 133.355469 C 1048.414062 136.292969 1047.5 139.203125 1046.585938 142.140625 C 1045.648438 145.195312 1044.707031 148.226562 1043.746094 151.285156 C 1043.144531 153.257812 1042.492188 158.3125 1040.425781 159.035156 C 1039.4375 159.371094 1037.34375 158.9375 1036.285156 158.9375 C 1034.816406 158.9375 1033.347656 158.9375 1031.878906 158.9375 L 1023.503906 158.9375 C 1020.449219 158.9375 1017.175781 159.296875 1014.144531 159.035156 C 1012.074219 158.839844 1011.808594 156.988281 1011.015625 155.375 C 1010.246094 153.8125 1009.453125 152.269531 1008.679688 150.730469 C 1006.730469 146.832031 999.464844 137.011719 1000.304688 132.800781 Z M 1168.238281 444 C 1180.921875 428.742188 1193.582031 413.507812 1206.261719 398.25 C 1225.878906 374.640625 1245.492188 351.03125 1265.105469 327.449219 C 1267.726562 324.296875 1270.253906 320.226562 1273.191406 317.414062 C 1276.199219 314.523438 1279.570312 317.703125 1282.625 319.121094 C 1286.546875 320.949219 1287.460938 321.40625 1286.957031 325.644531 C 1286.667969 328.144531 1286.402344 330.671875 1286.089844 333.175781 C 1285.199219 340.082031 1283.011719 343.859375 1278.292969 348.890625 C 1273.214844 354.328125 1268.160156 359.792969 1263.058594 365.230469 C 1242.410156 387.277344 1221.59375 409.175781 1200.726562 431.050781 C 1190.453125 441.808594 1180.175781 452.566406 1169.898438 463.324219 C 1164.4375 469.027344 1158.925781 474.707031 1153.535156 480.460938 C 1151.898438 482.214844 1150.019531 485.5625 1147.566406 485.632812 C 1147.085938 485.632812 1146.578125 485.539062 1146.027344 485.25 C 1131.683594 477.644531 1161.546875 452.0625 1168.214844 444.046875 Z M 324.386719 1367.558594 C 322.507812 1366.402344 320.65625 1365.175781 318.804688 1363.972656 C 314.734375 1361.351562 310.667969 1358.726562 306.601562 1356.078125 C 299.550781 1351.53125 292.5 1346.957031 285.449219 1342.410156 C 283.90625 1341.421875 282.101562 1339.304688 280.296875 1340.53125 C 278.058594 1342.050781 276.015625 1344.144531 273.894531 1345.851562 C 269.851562 1349.148438 265.808594 1352.445312 261.789062 1355.765625 C 258.230469 1358.679688 254.644531 1361.613281 251.082031 1364.527344 C 248.722656 1366.453125 240.515625 1371.074219 239.746094 1373.9375 C 239.722656 1374.03125 239.699219 1374.152344 239.675781 1374.273438 C 238.613281 1380.074219 248 1394.753906 250.289062 1400.121094 C 252.09375 1404.355469 253.898438 1408.617188 255.703125 1412.851562 C 256.617188 1414.992188 257.507812 1417.136719 258.421875 1419.277344 C 259.144531 1420.984375 259.578125 1424.234375 261.71875 1424.453125 C 263.546875 1424.644531 265.785156 1424.066406 267.640625 1423.921875 C 269.660156 1423.777344 271.707031 1423.632812 273.726562 1423.488281 C 278.347656 1423.152344 282.96875 1422.816406 287.566406 1422.503906 C 291.777344 1422.1875 295.964844 1421.898438 300.175781 1421.585938 C 302.222656 1421.441406 304.265625 1421.296875 306.289062 1421.15625 C 308.070312 1421.035156 311.199219 1421.46875 312.738281 1420.648438 C 314.207031 1419.878906 314.207031 1417.28125 314.617188 1415.714844 C 315.144531 1413.621094 315.675781 1411.550781 316.226562 1409.457031 C 317.40625 1404.863281 318.585938 1400.265625 319.765625 1395.644531 C 321.8125 1387.628906 323.664062 1379.566406 325.925781 1371.601562 C 326.144531 1370.832031 326.722656 1369.84375 326.382812 1369.027344 C 326.09375 1368.351562 325.011719 1367.921875 324.410156 1367.558594 Z M 301.742188 1378.484375 C 300.996094 1381.132812 300.25 1383.804688 299.503906 1386.449219 C 298.757812 1389.144531 297.960938 1391.839844 297.238281 1394.535156 C 296.953125 1395.644531 296.878906 1397.570312 295.964844 1398.4375 C 295.144531 1399.207031 293.4375 1398.964844 292.378906 1399.085938 C 286.914062 1399.734375 281.453125 1400.503906 275.988281 1401.179688 C 274.667969 1401.347656 273.246094 1401.757812 271.921875 1401.78125 C 270.382812 1401.828125 270.070312 1400.890625 269.515625 1399.566406 C 268.480469 1397.160156 267.300781 1394.824219 266.195312 1392.46875 C 264.65625 1389.21875 258.445312 1380.410156 259.023438 1376.96875 C 259.625 1373.429688 269.394531 1367.96875 272.257812 1365.707031 C 274.328125 1364.046875 276.398438 1361.953125 278.613281 1360.53125 C 280.707031 1359.183594 283.570312 1362.023438 285.449219 1363.082031 C 290.355469 1365.898438 295.242188 1368.808594 300.222656 1371.507812 C 301.453125 1372.179688 302.773438 1372.492188 303.015625 1373.9375 C 303.234375 1375.210938 302.148438 1377.257812 301.789062 1378.507812 Z M 301.742188 1378.484375 " fill-opacity="1" fill-rule="nonzero"/></g><path fill="#ffffff" d="M 443.371094 586.328125 C 446.402344 588.613281 456.050781 589.769531 472.273438 589.769531 L 472.175781 591.476562 L 460.144531 591.476562 L 460.046875 593.183594 C 474.414062 593.183594 483.367188 596.625 486.929688 603.484375 L 486.734375 606.925781 L 478.144531 606.925781 L 478.046875 608.636719 L 489.984375 610.34375 L 489.890625 612.054688 L 479.566406 612.054688 L 479.46875 613.761719 C 482.910156 613.761719 484.546875 614.917969 484.425781 617.203125 C 463.992188 617.203125 445.777344 624.640625 429.722656 639.535156 L 429.628906 641.246094 C 451.792969 647.164062 469.359375 660.355469 482.308594 680.785156 L 482.210938 682.496094 C 478.023438 697.320312 466.328125 711.085938 447.125 723.742188 L 436.605469 725.453125 L 436.511719 727.160156 L 439.953125 727.160156 C 439.808594 730.265625 429.289062 733.707031 408.402344 737.484375 L 408.59375 734.042969 L 417.183594 734.042969 L 417.378906 732.335938 C 410.039062 732.335938 403.394531 728.316406 397.453125 720.300781 C 392.324219 717.679688 389.773438 712.648438 389.773438 705.238281 C 389.773438 704.5625 389.796875 703.867188 389.871094 703.121094 L 395.238281 699.679688 L 400.195312 703.121094 L 403.636719 703.121094 C 435.980469 698.066406 452.683594 687.742188 453.695312 672.195312 C 440.144531 665.3125 431.191406 661.871094 426.8125 661.871094 L 426.714844 663.578125 L 409.820312 656.695312 L 411.433594 658.40625 L 411.335938 661.847656 C 397.042969 651.328125 390.0625 643.316406 390.398438 637.78125 L 403.851562 613.714844 L 412.855469 606.832031 L 412.660156 610.273438 L 443.394531 586.207031 Z M 419.304688 728.988281 L 419.207031 730.699219 L 426.089844 730.699219 L 434.777344 728.988281 L 434.777344 727.28125 L 433.070312 727.28125 L 419.328125 728.988281 Z M 419.929688 632.726562 L 419.832031 634.433594 L 450.15625 615.519531 L 464.113281 612.078125 L 464.308594 608.636719 L 460.867188 608.636719 C 442.742188 615.375 429.074219 623.386719 419.929688 632.703125 Z M 429.410156 703.191406 L 431.121094 703.191406 L 434.753906 699.75 L 433.042969 699.75 Z M 438.820312 716.957031 L 438.820312 718.664062 L 440.53125 718.664062 L 447.699219 713.515625 L 438.796875 716.957031 Z M 460.359375 703.191406 L 452.972656 711.78125 L 454.679688 711.78125 L 462.070312 703.191406 Z M 460.359375 703.191406 " fill-opacity="1" fill-rule="nonzero"/><path fill="#ffffff" d="M 526.78125 589.457031 C 526.515625 592.898438 528.660156 594.605469 533.257812 594.605469 L 536.382812 601.488281 L 534.554688 603.195312 L 536.265625 603.195312 C 528.035156 627.457031 523.027344 655.539062 521.199219 687.429688 L 520.597656 697.726562 L 522.304688 699.4375 L 522.210938 701.144531 L 520.378906 702.855469 L 522.089844 702.855469 L 520.261719 704.5625 L 521.269531 716.597656 L 521.078125 720.039062 C 514.941406 727.449219 511.742188 733.175781 511.476562 737.222656 L 504.59375 737.222656 L 496.316406 733.78125 L 498.746094 721.746094 L 492.175781 714.863281 L 495.304688 689.089844 L 497.011719 658.164062 L 500.742188 653.011719 L 501.152344 646.128906 L 499.539062 644.421875 L 499.636719 642.714844 L 503.078125 642.714844 L 503.171875 641.003906 L 501.5625 639.296875 L 508.539062 606.636719 L 506.832031 606.636719 L 508.660156 604.929688 L 509.164062 594.605469 L 507.554688 592.898438 L 507.648438 591.1875 L 526.757812 589.480469 Z M 502.210938 721.792969 L 501.707031 730.386719 L 505.242188 726.945312 L 505.652344 721.792969 Z M 502.523438 653.0625 L 502.019531 663.386719 L 503.726562 663.386719 L 504.230469 653.0625 Z M 505.148438 637.585938 L 504.546875 647.910156 L 506.253906 647.910156 L 506.855469 637.585938 Z M 507.769531 620.402344 L 507.167969 632.4375 L 508.878906 632.4375 L 509.480469 620.402344 Z M 507.769531 620.402344 " fill-opacity="1" fill-rule="nonzero"/><path fill="#ffffff" d="M 609.785156 591.691406 L 611.300781 593.402344 L 613.011719 593.402344 L 613.203125 591.691406 C 632.144531 596.554688 641.144531 603.414062 640.207031 612.316406 L 642.417969 622.640625 L 638.976562 622.640625 C 639.460938 618.070312 638.546875 615.757812 636.257812 615.757812 L 634.550781 615.757812 L 635.464844 624.351562 L 635.152344 626.058594 L 631.710938 626.058594 C 629.425781 626.058594 628.484375 624.351562 628.871094 620.910156 L 626.945312 622.617188 L 625.238281 622.617188 C 619.507812 618.046875 614.023438 615.734375 608.75 615.734375 C 597.296875 615.734375 583.988281 627.769531 568.824219 651.835938 L 563.363281 670.75 C 561.679688 685.984375 567.933594 696.863281 582.160156 703.40625 L 581.75 706.847656 L 578.308594 706.847656 L 578.113281 708.558594 L 581.554688 708.558594 C 589.714844 708.558594 601.699219 698.257812 617.558594 677.632812 L 617.753906 675.925781 L 616.042969 675.925781 C 606.945312 686.921875 598.621094 694.9375 591.0625 699.992188 L 589.355469 699.992188 L 610.675781 677.65625 L 598.644531 677.65625 C 598.910156 675.371094 597.320312 674.214844 593.902344 674.214844 L 592.386719 672.507812 L 592.578125 670.796875 C 592.769531 668.511719 598.667969 666.78125 610.265625 665.648438 L 610.675781 662.207031 L 608.75 663.914062 L 598.425781 663.914062 L 589.425781 651.882812 L 591.351562 650.175781 L 591.449219 648.464844 L 610.242188 650.175781 L 655.4375 645.023438 L 655.632812 643.316406 C 649.902344 643.316406 647.160156 642.160156 647.449219 639.875 L 649.15625 639.875 L 650.675781 641.582031 L 652.597656 639.875 L 654.308594 639.875 C 666.507812 643.386719 672.476562 646.25 672.214844 648.464844 L 672.117188 650.175781 L 670.191406 651.882812 L 670 653.589844 L 676.882812 653.589844 L 676.472656 657.03125 L 674.765625 657.03125 L 646.96875 660.472656 L 646.777344 662.183594 L 648.484375 662.183594 L 664.152344 660.472656 L 663.742188 663.914062 C 652.285156 663.914062 646.054688 668.488281 645.042969 677.65625 L 636.859375 705.164062 L 638.472656 706.875 L 638.28125 708.582031 L 635.5625 717.171875 L 635.875 730.914062 L 632.144531 734.355469 L 633.5625 736.066406 C 628.847656 737.558594 626.296875 740.421875 625.886719 744.65625 L 620.734375 744.65625 C 618.449219 744.65625 617.847656 739.507812 618.90625 729.183594 L 617.199219 729.183594 L 615.875 741.214844 L 610.722656 741.214844 L 611.640625 732.625 L 611.230469 720.589844 L 607.789062 720.589844 C 601.242188 725.164062 594.671875 727.472656 588.078125 727.472656 L 579.488281 727.472656 L 576.550781 724.03125 L 576.648438 722.324219 L 580.089844 722.324219 L 580.28125 720.613281 C 556.480469 720.613281 543.605469 712.601562 541.65625 696.550781 C 540.308594 689.136719 539.632812 681.722656 539.632812 674.3125 C 539.632812 669.738281 539.898438 665.117188 540.453125 660.449219 L 540.765625 657.007812 C 541.773438 648.25 545.890625 636.792969 553.109375 622.640625 L 554.820312 622.640625 L 554.410156 626.082031 L 547.9375 638.117188 L 547.839844 639.824219 L 549.546875 639.824219 C 550.703125 629.378906 561.847656 616.191406 583.023438 600.285156 L 584.734375 600.285156 L 584.925781 598.578125 L 583.21875 598.578125 L 577.851562 600.285156 C 581.21875 594.558594 591.855469 591.691406 609.808594 591.691406 Z M 562.664062 614.027344 L 562.351562 615.734375 L 554.769531 622.617188 L 554.964844 620.910156 L 562.640625 614.027344 Z M 574.3125 601.992188 L 576.019531 601.992188 L 562.664062 614.027344 L 562.855469 612.316406 L 574.289062 601.992188 Z M 583.507812 722.300781 L 583.410156 724.007812 L 592 724.007812 L 592.097656 722.300781 Z M 587.644531 699.964844 L 589.355469 699.964844 L 585.625 703.40625 L 583.914062 703.40625 Z M 596.042969 717.148438 L 610.605469 710.265625 L 611.011719 706.824219 L 609.304688 706.824219 L 596.070312 717.148438 Z M 599.582031 605.433594 L 599.484375 607.144531 L 611.519531 607.144531 L 611.613281 605.433594 Z M 638.714844 641.535156 L 645.597656 641.535156 L 641.746094 644.976562 Z M 638.714844 641.535156 " fill-opacity="1" fill-rule="nonzero"/><path fill="#ffffff" d="M 695.726562 589.671875 L 707.757812 599.996094 C 707.757812 596.554688 708.914062 594.847656 711.199219 594.847656 L 712.910156 594.847656 L 736.976562 656.71875 L 736.976562 660.160156 L 735.265625 660.160156 L 731.824219 649.859375 L 730.117188 649.859375 L 730.117188 653.300781 L 742.148438 682.519531 L 743.859375 682.519531 C 748.429688 652.726562 755.050781 621.632812 763.664062 589.191406 L 768.816406 592.632812 L 773.964844 590.921875 L 784.289062 596.074219 L 784.289062 597.78125 C 780.847656 597.78125 779.140625 600.066406 779.140625 604.664062 L 780.847656 604.664062 L 782.554688 606.375 L 784.265625 606.375 L 785.972656 597.78125 L 789.414062 597.78125 L 789.414062 599.492188 L 787.707031 601.199219 L 789.414062 602.90625 L 789.414062 604.617188 C 780.777344 631.113281 773.027344 669.089844 766.167969 718.570312 L 762.726562 718.570312 L 766.167969 691.0625 C 763.882812 691.0625 760.441406 701.941406 755.867188 723.71875 C 751.632812 727.160156 747.613281 728.871094 743.835938 728.871094 L 743.835938 732.3125 L 742.125 732.3125 C 742.125 730.023438 739.839844 728.871094 735.242188 728.871094 L 735.242188 716.835938 C 735.242188 711.636719 723.785156 683 700.875 630.898438 L 699.167969 630.898438 C 694.570312 651.328125 690.574219 678.8125 687.132812 713.394531 L 685.425781 711.6875 C 678.542969 713.707031 675.125 716.570312 675.125 720.277344 L 671.683594 720.277344 C 669.398438 715.96875 668.242188 708.511719 668.242188 697.945312 L 666.535156 697.945312 L 666.535156 713.417969 L 663.09375 713.417969 L 661.382812 704.828125 C 661.382812 673.6875 668.265625 635.878906 682.007812 591.378906 L 695.75 589.671875 Z M 671.660156 632.628906 L 671.660156 634.339844 L 673.367188 636.046875 L 671.660156 637.753906 L 671.660156 641.195312 L 673.367188 641.195312 L 675.078125 634.3125 L 673.367188 632.605469 L 671.660156 632.605469 Z M 736.976562 660.136719 C 739.933594 660.136719 742.222656 664.734375 743.859375 673.878906 L 743.859375 675.585938 L 742.148438 675.585938 L 737 660.113281 Z M 736.976562 660.136719 " fill-opacity="1" fill-rule="nonzero"/><path fill="#ffffff" d="M 877.113281 589.046875 L 880.554688 594.195312 L 878.84375 602.789062 L 880.554688 604.496094 L 882.261719 604.496094 L 883.96875 595.90625 L 887.410156 595.90625 L 889.121094 601.054688 C 879.953125 634.074219 875.378906 659.871094 875.378906 678.402344 C 876.535156 691.015625 878.820312 697.320312 882.261719 697.320312 L 921.800781 652.628906 L 923.511719 644.035156 L 923.511719 595.90625 L 926.953125 592.464844 C 929.238281 592.464844 930.394531 594.75 930.394531 599.347656 L 932.101562 599.347656 C 932.101562 594.773438 934.964844 592.464844 940.695312 592.464844 L 944.136719 599.347656 L 942.425781 607.9375 C 944.714844 607.9375 945.867188 605.074219 945.867188 599.347656 L 949.308594 599.347656 L 951.019531 601.054688 L 952.726562 601.054688 L 944.136719 724.800781 L 942.425781 731.6875 C 937.855469 731.6875 935.542969 733.972656 935.542969 738.570312 L 928.660156 738.570312 L 930.371094 721.386719 L 926.929688 721.386719 L 926.929688 731.710938 L 921.777344 736.859375 L 921.777344 735.152344 L 923.488281 717.96875 C 920.046875 717.96875 918.335938 715.679688 918.335938 711.085938 L 916.628906 711.085938 L 887.410156 724.828125 L 873.671875 721.386719 L 873.671875 723.09375 C 861.804688 723.09375 853.792969 705.910156 849.605469 671.519531 C 854.175781 619.945312 858.773438 594.171875 863.347656 594.171875 L 863.347656 592.464844 L 865.054688 592.464844 L 865.054688 599.347656 L 861.613281 599.347656 L 861.613281 602.789062 L 863.320312 604.496094 L 863.320312 606.207031 L 861.613281 606.207031 L 863.320312 611.355469 L 858.171875 619.945312 L 859.878906 619.945312 L 861.589844 618.238281 L 856.4375 649.164062 L 856.4375 656.046875 L 858.148438 656.046875 C 861.78125 611.355469 868.085938 589.023438 877.0625 589.023438 Z M 856.488281 657.804688 L 854.777344 659.511719 L 854.777344 673.253906 L 856.488281 673.253906 L 858.195312 657.777344 L 856.488281 657.777344 Z M 859.929688 699.050781 L 859.929688 702.492188 L 861.636719 707.644531 L 863.347656 707.644531 L 863.347656 704.203125 L 861.636719 699.050781 Z M 871.9375 707.644531 L 871.9375 709.351562 C 871.9375 713.324219 877.085938 716.765625 887.414062 719.675781 L 890.855469 719.675781 L 890.855469 717.96875 C 884.234375 717.894531 877.953125 714.453125 871.9375 707.644531 Z M 909.769531 671.542969 L 897.738281 685.285156 L 899.445312 685.285156 L 911.476562 671.542969 Z M 909.769531 671.542969 " fill-opacity="1" fill-rule="nonzero"/><path fill="#ffffff" d="M 974.363281 581.875 L 975.976562 583.582031 L 975.976562 585.292969 L 977.683594 583.582031 L 986.277344 583.582031 C 988.5625 583.582031 989.644531 586.445312 989.5 592.175781 L 991.210938 592.175781 C 991.351562 588.734375 992.558594 587.023438 994.84375 587.023438 C 997.128906 587.023438 998.210938 588.734375 998.066406 592.175781 L 1010.199219 590.464844 L 1028.609375 593.90625 L 1035.492188 592.199219 C 1044.25 592.199219 1050.988281 596.796875 1055.707031 605.941406 L 1053.878906 617.972656 L 1055.488281 619.683594 L 1055.488281 621.390625 L 1051.757812 631.714844 L 1050.050781 631.714844 L 1050.148438 628.273438 L 1048.4375 628.273438 C 1039.535156 649.835938 1026.996094 664.734375 1010.824219 672.964844 L 982.929688 684.996094 L 982.015625 714.214844 L 983.4375 722.804688 C 981.148438 722.804688 978.070312 728.53125 974.242188 739.988281 L 972.535156 741.695312 L 970.824219 741.695312 L 957.277344 734.8125 L 959.488281 721.074219 L 954.53125 714.191406 L 958.769531 690.125 L 957.058594 688.414062 L 963.316406 655.757812 L 961.609375 654.046875 L 963.4375 652.339844 L 966.878906 652.339844 L 966.6875 659.222656 L 968.394531 659.222656 L 968.707031 650.632812 L 967.191406 645.480469 L 970.632812 645.480469 L 970.824219 636.890625 L 967.480469 633.449219 L 967.289062 640.332031 L 965.578125 640.332031 C 965.84375 633.0625 962.617188 627.335938 955.878906 623.148438 L 954.460938 612.824219 L 954.773438 605.941406 C 969.816406 599.804688 977.347656 595.808594 977.417969 593.90625 L 977.515625 592.199219 L 974.171875 588.757812 L 972.460938 590.464844 L 970.847656 583.582031 L 972.679688 581.875 L 974.386719 581.875 Z M 963.246094 660.929688 L 963.148438 662.640625 L 964.761719 664.347656 L 963.050781 666.058594 L 962.859375 669.5 L 966.300781 669.5 L 966.710938 660.90625 L 963.269531 660.90625 Z M 1033.109375 624.855469 C 1029.472656 631.332031 1014.816406 641.078125 989.140625 654.074219 L 987.429688 655.78125 L 987.429688 657.488281 L 990.871094 657.488281 C 1007.789062 652.292969 1022.445312 641.414062 1034.839844 624.832031 L 1033.132812 624.832031 Z M 989.332031 648.898438 L 992.773438 648.898438 C 1007.527344 642.6875 1020.472656 632.390625 1031.59375 617.972656 L 1026.441406 617.972656 C 1003.457031 619.511719 991.90625 622.957031 991.761719 628.296875 L 989.332031 648.921875 Z M 989.332031 648.898438 " fill-opacity="1" fill-rule="nonzero"/><path fill="#ffffff" d="M 438.941406 810.910156 L 458 827.25 C 458 821.8125 459.804688 819.09375 463.441406 819.09375 L 466.160156 819.09375 L 504.28125 917.113281 L 504.28125 922.554688 L 501.5625 922.554688 L 496.121094 906.210938 L 493.402344 906.210938 L 493.402344 911.652344 L 512.460938 957.929688 L 515.183594 957.929688 C 522.449219 910.738281 532.894531 861.472656 546.566406 810.117188 L 554.722656 815.554688 L 562.882812 812.835938 L 579.222656 820.996094 L 579.222656 823.714844 C 573.78125 823.714844 571.0625 827.347656 571.0625 834.59375 L 573.78125 834.59375 L 576.503906 837.3125 L 579.222656 837.3125 L 581.941406 823.691406 L 587.378906 823.691406 L 587.378906 826.410156 L 584.660156 829.128906 L 587.378906 831.847656 L 587.378906 834.566406 C 573.710938 876.515625 561.4375 936.679688 550.535156 1015.0625 L 545.097656 1015.0625 L 550.535156 971.503906 C 546.902344 971.503906 541.460938 988.757812 534.195312 1023.222656 C 527.480469 1028.660156 521.101562 1031.378906 515.132812 1031.378906 L 515.132812 1036.820312 L 512.414062 1036.820312 C 512.414062 1033.183594 508.78125 1031.378906 501.535156 1031.378906 L 501.535156 1012.320312 C 501.535156 1004.089844 483.390625 958.726562 447.074219 876.203125 L 444.355469 876.203125 C 437.089844 908.546875 430.734375 952.105469 425.296875 1006.882812 L 422.574219 1004.160156 C 411.699219 1007.363281 406.234375 1011.910156 406.234375 1017.78125 L 400.796875 1017.78125 C 397.164062 1010.949219 395.359375 999.15625 395.359375 982.382812 L 392.636719 982.382812 L 392.636719 1006.882812 L 387.199219 1006.882812 L 384.480469 993.257812 C 384.480469 943.925781 395.382812 884.046875 417.160156 813.582031 L 438.941406 810.863281 Z M 400.820312 878.96875 L 400.820312 881.6875 L 403.539062 884.410156 L 400.820312 887.128906 L 400.820312 892.566406 L 403.539062 892.566406 L 406.257812 881.691406 L 403.539062 878.96875 Z M 504.28125 922.53125 C 508.972656 922.53125 512.605469 929.796875 515.160156 944.308594 L 515.160156 947.027344 L 512.4375 947.027344 Z M 504.28125 922.53125 " fill-opacity="1" fill-rule="nonzero"/><path fill="#ffffff" d="M 711.03125 808.839844 C 732.378906 808.839844 752.351562 815.195312 770.933594 827.902344 L 768.214844 830.621094 L 768.214844 833.339844 L 779.089844 849.679688 L 773.652344 849.679688 L 770.933594 846.960938 L 768.210938 846.960938 L 776.371094 906.863281 L 779.089844 906.863281 C 779.089844 897.789062 780.894531 893.242188 784.53125 893.242188 L 784.53125 904.117188 C 784.53125 914.371094 775.457031 937.957031 757.3125 974.898438 L 760.03125 974.898438 C 747.226562 992.511719 728.167969 1008.855469 702.847656 1023.894531 L 689.226562 1026.617188 L 686.507812 1026.617188 C 643.382812 1026.617188 616.140625 1009.382812 604.828125 974.898438 L 593.949219 958.554688 L 596.671875 955.835938 L 593.949219 936.777344 L 593.949219 931.335938 C 593.949219 916.273438 608.460938 889.96875 637.511719 852.375 L 637.511719 855.097656 C 624.152344 873.027344 613.277344 893 604.828125 914.996094 L 604.828125 917.714844 L 607.546875 917.714844 C 614.164062 891.125 638.664062 857.550781 681.046875 816.976562 L 661.984375 827.855469 L 659.265625 827.855469 C 659.265625 819.527344 676.496094 813.171875 710.984375 808.792969 Z M 602.132812 931.335938 L 602.132812 953.117188 L 604.851562 953.117188 L 604.851562 931.335938 Z M 637.511719 893.242188 L 629.351562 909.582031 L 632.070312 909.582031 L 640.230469 893.242188 Z M 697.410156 855.121094 L 694.691406 852.402344 L 694.691406 855.121094 L 697.410156 857.839844 L 678.351562 874.179688 C 663.285156 874.179688 648.773438 899.59375 634.789062 950.421875 C 634.789062 964.933594 642.949219 977.640625 659.289062 988.542969 L 662.007812 988.542969 C 681.863281 988.542969 704.558594 967.675781 730.066406 925.921875 C 739.140625 906.066406 743.691406 891.554688 743.691406 882.363281 L 743.691406 860.582031 C 743.691406 855.578125 734.617188 851.945312 716.472656 849.707031 L 713.75 849.707031 L 711.03125 852.425781 L 708.3125 852.425781 L 708.3125 849.707031 L 697.410156 855.144531 Z M 642.972656 999.421875 L 642.972656 1002.140625 L 656.59375 1010.296875 L 656.59375 1007.578125 Z M 730.09375 939.519531 L 719.214844 953.140625 L 721.933594 953.140625 L 732.8125 939.519531 Z M 743.691406 909.558594 L 732.789062 936.777344 L 740.945312 936.777344 L 749.105469 917.714844 L 746.386719 909.558594 L 743.664062 909.558594 Z M 762.75 920.460938 L 760.03125 928.617188 L 760.03125 934.058594 L 762.75 934.058594 L 765.46875 923.179688 L 765.46875 920.460938 Z M 776.371094 863.277344 L 781.808594 863.277344 L 781.808594 876.898438 L 776.371094 876.898438 Z M 776.371094 863.277344 " fill-opacity="1" fill-rule="nonzero"/><path fill="#ffffff" d="M 808.546875 803.714844 L 816.707031 803.714844 L 819.425781 817.335938 C 824.863281 817.335938 827.585938 814.617188 827.585938 809.179688 L 830.304688 809.179688 L 835.742188 814.617188 L 833.023438 830.957031 L 835.742188 830.957031 L 833.023438 833.675781 L 833.023438 836.398438 L 835.742188 839.117188 L 835.742188 841.835938 L 833.023438 841.835938 L 835.742188 844.554688 L 835.742188 847.273438 L 833.023438 937.113281 L 833.023438 939.832031 L 835.742188 939.832031 L 843.902344 912.613281 L 849.339844 912.613281 L 830.28125 964.332031 L 835.71875 964.332031 L 868.398438 871.773438 L 862.960938 871.773438 L 852.082031 907.175781 L 846.644531 907.175781 L 846.644531 904.457031 L 865.703125 860.894531 L 868.425781 860.894531 L 868.425781 866.335938 L 890.203125 860.894531 C 897.472656 863.566406 901.105469 866.285156 901.105469 869.054688 L 903.824219 866.335938 L 911.984375 866.335938 L 922.863281 931.675781 L 925.582031 931.675781 C 925.582031 923.5625 939.875 876.804688 968.492188 791.394531 L 971.210938 791.394531 L 973.929688 799.550781 L 976.648438 799.550781 L 976.648438 794.113281 L 979.367188 794.113281 C 992.820312 794.113281 1000.089844 796.832031 1001.148438 802.269531 L 1001.148438 807.710938 L 995.710938 815.867188 L 995.710938 818.589844 L 1001.148438 818.589844 L 1003.867188 799.527344 L 1009.308594 799.527344 L 1014.746094 804.96875 L 1014.746094 807.6875 L 952.777344 1021.488281 L 944.617188 1024.207031 L 944.617188 1018.769531 L 941.898438 1021.488281 L 939.179688 1021.488281 L 936.457031 1018.769531 C 936.457031 1026.039062 933.738281 1029.648438 928.300781 1029.648438 C 913.789062 1028.371094 906.519531 1025.652344 906.519531 1021.488281 L 909.242188 1021.488281 C 907.433594 1012.417969 903.800781 1006.0625 898.363281 1002.429688 L 887.484375 942.527344 C 884.378906 942.625 873.503906 968.039062 854.804688 1018.769531 L 841.179688 1032.390625 L 838.460938 1032.390625 L 835.742188 1021.488281 C 863.492188 975.570312 878.027344 940.195312 879.300781 915.308594 C 874.488281 920.121094 862.695312 947.339844 843.902344 996.988281 C 841.664062 996.988281 838.027344 1007.867188 833.023438 1029.671875 L 808.523438 1029.671875 L 805.804688 1018.792969 L 803.085938 1021.511719 L 800.367188 1021.511719 C 800.367188 1011.695312 797.644531 1004.425781 792.207031 999.734375 L 792.207031 988.855469 L 803.085938 997.015625 L 797.644531 950.734375 L 800.367188 948.015625 L 797.644531 945.296875 L 800.367188 942.578125 L 797.644531 942.578125 L 800.367188 939.855469 L 800.367188 901.738281 L 803.085938 888.113281 L 800.367188 888.113281 L 803.085938 885.394531 L 803.085938 814.617188 L 800.367188 811.898438 L 800.367188 809.179688 L 808.523438 803.738281 Z M 968.539062 804.992188 C 941.730469 888.378906 928.347656 935.140625 928.347656 945.273438 L 928.347656 947.992188 L 931.066406 947.992188 L 973.976562 804.992188 Z M 947.410156 975.234375 L 941.96875 999.734375 L 941.96875 1005.171875 L 944.6875 1005.171875 L 950.128906 977.953125 L 950.128906 975.234375 Z M 963.75 909.894531 L 958.3125 934.394531 L 958.3125 937.113281 L 961.03125 937.113281 L 966.46875 912.613281 L 966.46875 909.894531 Z M 963.75 909.894531 " fill-opacity="1" fill-rule="nonzero"/></svg>