<svg xmlns="http://www.w3.org/2000/svg" xmlns:xlink="http://www.w3.org/1999/xlink" width="2000" zoomAndPan="magnify" viewBox="0 0 1500 1499.999933" height="2000" preserveAspectRatio="xMidYMid meet" version="1.0"><defs><clipPath id="de137a3222"><path d="M 14 67.15625 L 1486 67.15625 L 1486 1432.90625 L 14 1432.90625 Z M 14 67.15625 " clip-rule="nonzero"/></clipPath></defs><g clip-path="url(#de137a3222)"><path fill="#f59e0b" d="M 360.054688 924.136719 C 373.152344 924.136719 383.789062 934.773438 383.789062 947.875 C 383.789062 960.976562 373.152344 971.609375 360.054688 971.609375 L 92.671875 971.609375 C 71.859375 971.609375 51.898438 963.34375 37.183594 948.625 C 22.464844 933.910156 14.199219 913.945312 14.199219 893.132812 L 14.199219 145.757812 C 14.199219 124.945312 22.464844 104.984375 37.183594 90.265625 C 51.898438 75.546875 71.859375 67.28125 92.671875 67.28125 L 1407.320312 67.28125 C 1428.132812 67.28125 1448.097656 75.546875 1462.8125 90.265625 C 1477.527344 104.984375 1485.796875 124.945312 1485.796875 145.757812 L 1485.796875 893.132812 C 1485.796875 913.945312 1477.527344 933.910156 1462.8125 948.625 C 1448.097656 963.34375 1428.132812 971.609375 1407.320312 971.609375 L 1139.941406 971.609375 C 1126.84375 971.609375 1116.207031 960.976562 1116.207031 947.875 C 1116.207031 934.773438 1126.84375 924.136719 1139.941406 924.136719 L 1407.320312 924.136719 C 1415.546875 924.136719 1423.433594 920.871094 1429.242188 915.058594 C 1435.058594 909.246094 1438.324219 901.359375 1438.324219 893.132812 L 1438.324219 145.757812 C 1438.324219 137.53125 1435.058594 129.648438 1429.242188 123.832031 C 1423.433594 118.019531 1415.546875 114.753906 1407.320312 114.753906 L 92.671875 114.753906 C 84.449219 114.753906 76.5625 118.019531 70.75 123.832031 C 64.933594 129.648438 61.667969 137.53125 61.667969 145.757812 L 61.667969 893.132812 C 61.667969 901.359375 64.933594 909.246094 70.75 915.058594 C 76.5625 920.871094 84.449219 924.136719 92.671875 924.136719 Z M 394.921875 812.453125 C 408.023438 812.453125 418.65625 823.085938 418.65625 836.1875 C 418.65625 849.285156 408.023438 859.921875 394.921875 859.921875 L 215.414062 859.921875 C 202.304688 859.921875 191.679688 849.292969 191.679688 836.1875 C 191.679688 804.085938 165.613281 778.019531 133.511719 778.019531 C 120.402344 778.019531 109.773438 767.390625 109.773438 754.285156 L 109.773438 284.605469 C 109.773438 271.5 120.402344 260.871094 133.511719 260.871094 C 165.613281 260.871094 191.679688 234.808594 191.679688 202.703125 C 191.679688 189.597656 202.304688 178.96875 215.414062 178.96875 L 1284.578125 178.96875 C 1297.691406 178.96875 1308.316406 189.597656 1308.316406 202.703125 C 1308.316406 234.808594 1334.378906 260.871094 1366.484375 260.871094 C 1379.59375 260.871094 1390.21875 271.5 1390.21875 284.605469 L 1390.21875 754.285156 C 1390.21875 767.390625 1379.59375 778.019531 1366.484375 778.019531 C 1334.378906 778.019531 1308.316406 804.085938 1308.316406 836.1875 C 1308.316406 849.292969 1297.691406 859.921875 1284.578125 859.921875 L 1105.074219 859.921875 C 1091.972656 859.921875 1081.339844 849.285156 1081.339844 836.1875 C 1081.339844 823.085938 1091.972656 812.453125 1105.074219 812.453125 C 1105.074219 812.453125 1263.527344 812.453125 1263.527344 812.453125 C 1272.554688 773.191406 1303.488281 742.257812 1342.75 733.230469 C 1342.75 733.230469 1342.75 305.660156 1342.75 305.660156 C 1303.488281 296.636719 1272.554688 265.699219 1263.527344 226.441406 C 1263.527344 226.441406 236.46875 226.441406 236.46875 226.441406 C 227.441406 265.699219 196.507812 296.636719 157.246094 305.660156 C 157.246094 394.382812 157.246094 733.230469 157.246094 733.230469 C 196.507812 742.257812 227.441406 773.191406 236.46875 812.453125 Z M 456.378906 336.566406 C 443.277344 336.566406 432.640625 325.933594 432.640625 312.832031 C 432.640625 299.734375 443.277344 289.097656 456.378906 289.097656 L 1043.617188 289.097656 C 1056.714844 289.097656 1067.351562 299.734375 1067.351562 312.832031 C 1067.351562 325.933594 1056.714844 336.566406 1043.617188 336.566406 Z M 305.808594 454.527344 C 292.707031 454.527344 282.074219 443.894531 282.074219 430.792969 C 282.074219 417.695312 292.707031 407.058594 305.808594 407.058594 L 1194.1875 407.058594 C 1207.289062 407.058594 1217.921875 417.695312 1217.921875 430.792969 C 1217.921875 443.894531 1207.289062 454.527344 1194.1875 454.527344 Z M 305.808594 572.496094 C 292.707031 572.496094 282.074219 561.859375 282.074219 548.757812 C 282.074219 535.65625 292.707031 525.023438 305.808594 525.023438 L 1194.1875 525.023438 C 1207.289062 525.023438 1217.921875 535.65625 1217.921875 548.757812 C 1217.921875 561.859375 1207.289062 572.496094 1194.1875 572.496094 Z M 305.808594 690.457031 C 292.707031 690.457031 282.074219 679.820312 282.074219 666.722656 C 282.074219 653.621094 292.707031 642.984375 305.808594 642.984375 L 478.683594 642.984375 C 491.785156 642.984375 502.417969 653.621094 502.417969 666.722656 C 502.417969 679.820312 491.785156 690.457031 478.683594 690.457031 Z M 1021.3125 690.457031 C 1008.210938 690.457031 997.574219 679.820312 997.574219 666.722656 C 997.574219 653.621094 1008.210938 642.984375 1021.3125 642.984375 L 1194.1875 642.984375 C 1207.289062 642.984375 1217.921875 653.621094 1217.921875 666.722656 C 1217.921875 679.820312 1207.289062 690.457031 1194.1875 690.457031 Z M 524.660156 1171.605469 L 497.625 1160.035156 C 460.496094 1144.117188 439.054688 1106.984375 443.792969 1066.917969 L 443.796875 1066.894531 L 449.691406 1017.5625 C 449.695312 1017.539062 449.699219 1017.515625 449.703125 1017.488281 C 450.765625 1008.828125 449.363281 1001.175781 445.488281 993.414062 C 445.488281 993.414062 423.097656 949.128906 423.117188 949.167969 C 404.820312 913.136719 412.257812 870.894531 441.738281 843.222656 L 477.949219 809.253906 L 477.996094 809.210938 C 484.347656 803.28125 488.210938 796.554688 490.171875 788.132812 L 490.183594 788.082031 C 490.183594 788.082031 501.535156 739.765625 501.546875 739.71875 C 510.695312 700.414062 543.550781 672.839844 583.875 670.582031 L 583.890625 670.578125 L 633.476562 667.839844 C 642.160156 667.363281 649.476562 664.738281 656.363281 659.546875 C 656.382812 659.535156 656.398438 659.519531 656.417969 659.507812 L 696.191406 629.695312 L 696.238281 629.660156 C 728.617188 605.519531 771.375 605.519531 803.753906 629.660156 L 803.800781 629.695312 L 843.5625 659.496094 C 850.527344 664.703125 857.804688 667.359375 866.519531 667.839844 L 916.105469 670.578125 L 916.117188 670.582031 C 956.441406 672.839844 989.296875 700.414062 998.4375 739.667969 L 1009.8125 788.082031 L 1009.824219 788.132812 C 1011.785156 796.554688 1015.648438 803.28125 1022 809.210938 L 1022.042969 809.253906 L 1058.253906 843.222656 C 1087.734375 870.894531 1095.171875 913.136719 1076.898438 949.128906 C 1076.898438 949.128906 1054.503906 993.414062 1054.480469 993.46875 C 1050.625 1001.210938 1049.230469 1008.847656 1050.292969 1017.488281 C 1050.296875 1017.515625 1050.296875 1017.539062 1050.300781 1017.5625 L 1056.195312 1066.894531 L 1056.199219 1066.917969 C 1060.941406 1106.992188 1039.597656 1144.128906 1002.359375 1160.039062 L 975.335938 1171.605469 C 997.289062 1218.769531 1046.738281 1325.035156 1046.800781 1325.171875 C 1051.875 1335.746094 1050.511719 1347.132812 1043.589844 1355.929688 C 1036.746094 1365.003906 1026.257812 1369.15625 1014.9375 1367.113281 L 942.269531 1354.4375 C 942.269531 1354.4375 905.199219 1418.089844 905.160156 1418.15625 C 899.667969 1427.777344 889.703125 1433.402344 878.375 1432.984375 C 867.117188 1432.566406 857.789062 1426.550781 852.785156 1416.128906 C 852.75 1416.046875 852.707031 1415.960938 852.667969 1415.878906 L 782.617188 1265.429688 L 762.195312 1259.257812 C 762.15625 1259.246094 762.113281 1259.234375 762.074219 1259.222656 C 753.867188 1256.699219 746.128906 1256.699219 737.917969 1259.222656 C 737.878906 1259.234375 737.839844 1259.246094 737.800781 1259.257812 L 717.375 1265.429688 C 701.28125 1299.988281 647.398438 1415.722656 647.414062 1415.6875 C 642.6875 1426.175781 633.027344 1432.5625 621.621094 1432.984375 C 610.304688 1433.402344 600.347656 1427.789062 594.863281 1418.214844 L 557.792969 1354.4375 C 557.792969 1354.4375 485.054688 1367.113281 485.054688 1367.113281 C 473.683594 1369.160156 463.167969 1364.96875 456.433594 1355.96875 C 449.507812 1347.082031 448.148438 1335.808594 453.109375 1325.34375 Z M 659.394531 1277.484375 C 631.402344 1276.160156 605.414062 1261.691406 589.171875 1236.824219 L 564.335938 1198.851562 L 510.519531 1314.488281 L 565.929688 1304.832031 C 575.714844 1303.125 585.53125 1307.699219 590.523438 1316.285156 L 618.738281 1364.816406 Z M 775.378906 667.71875 L 775.332031 667.683594 C 760.054688 656.324219 739.898438 656.332031 724.628906 667.710938 C 724.628906 667.710938 684.898438 697.484375 684.898438 697.484375 C 670.203125 708.550781 654.613281 714.222656 636.085938 715.238281 L 586.527344 717.976562 C 567.558594 719.039062 552.085938 731.992188 547.78125 750.480469 L 547.769531 750.527344 C 547.769531 750.527344 536.417969 798.84375 536.40625 798.890625 C 532.222656 816.863281 523.972656 831.21875 510.421875 843.878906 L 474.226562 877.832031 C 460.359375 890.851562 456.835938 910.722656 465.445312 927.671875 L 465.460938 927.710938 L 487.882812 972.054688 C 487.898438 972.085938 487.917969 972.117188 487.929688 972.148438 C 496.160156 988.605469 499.070312 1004.847656 496.828125 1023.214844 L 490.9375 1072.503906 C 488.703125 1091.394531 498.820312 1108.898438 516.328125 1116.402344 C 516.328125 1116.402344 561.882812 1135.902344 561.882812 1135.902344 C 578.910156 1143.128906 591.566406 1153.824219 601.71875 1169.28125 L 601.746094 1169.320312 L 628.90625 1210.851562 C 639.332031 1226.808594 658.277344 1233.648438 676.523438 1228.175781 C 676.523438 1228.175781 724.035156 1213.828125 724.035156 1213.828125 C 741.679688 1208.414062 758.3125 1208.414062 775.960938 1213.828125 L 823.46875 1228.175781 C 841.71875 1233.648438 860.664062 1226.808594 871.089844 1210.851562 L 898.25 1169.320312 L 898.277344 1169.28125 C 908.429688 1153.824219 921.085938 1143.128906 938.109375 1135.902344 L 983.675781 1116.394531 L 983.691406 1116.390625 C 1001.246094 1108.890625 1011.289062 1091.382812 1009.058594 1072.503906 C 1009.058594 1072.503906 1003.164062 1023.214844 1003.164062 1023.21875 C 1000.921875 1004.847656 1003.832031 988.605469 1012.0625 972.148438 C 1012.078125 972.117188 1012.09375 972.085938 1012.109375 972.054688 L 1034.53125 927.710938 L 1034.550781 927.671875 C 1043.160156 910.722656 1039.636719 890.851562 1025.769531 877.832031 C 1025.769531 877.832031 989.574219 843.878906 989.574219 843.878906 C 976.019531 831.21875 967.769531 816.863281 963.601562 798.941406 L 952.222656 750.527344 L 952.210938 750.480469 C 947.910156 731.992188 932.433594 719.039062 913.464844 717.976562 L 863.914062 715.238281 C 845.394531 714.222656 829.921875 708.574219 815.125 697.507812 L 815.109375 697.496094 Z M 750.039062 1141.859375 C 641.386719 1141.859375 552.746094 1053.21875 552.746094 944.566406 C 552.746094 835.914062 641.386719 747.273438 750.039062 747.273438 C 858.597656 747.273438 947.246094 835.910156 947.246094 944.566406 C 947.246094 1053.222656 858.597656 1141.859375 750.039062 1141.859375 Z M 750.039062 1094.386719 C 832.472656 1094.386719 899.777344 1027.070312 899.777344 944.566406 C 899.777344 862.058594 832.472656 794.746094 750.039062 794.746094 C 667.527344 794.746094 600.21875 862.054688 600.21875 944.566406 C 600.21875 1027.074219 667.527344 1094.386719 750.039062 1094.386719 Z M 658.6875 959.980469 C 649.425781 950.71875 649.425781 935.675781 658.6875 926.414062 C 667.949219 917.152344 682.988281 917.152344 692.25 926.414062 C 692.25 926.414062 726.066406 960.226562 726.066406 960.226562 L 807.742188 878.550781 C 817.003906 869.289062 832.042969 869.289062 841.308594 878.550781 C 850.570312 887.8125 850.570312 902.855469 841.308594 912.121094 L 742.851562 1010.578125 C 733.582031 1019.847656 718.550781 1019.847656 709.28125 1010.578125 Z M 935.660156 1198.851562 L 910.832031 1236.816406 C 894.582031 1261.6875 868.589844 1276.160156 840.597656 1277.484375 C 853.339844 1304.847656 869.714844 1340.027344 881.273438 1364.847656 L 909.5625 1316.273438 C 914.558594 1307.691406 924.371094 1303.125 934.152344 1304.835938 L 989.46875 1314.484375 Z M 935.660156 1198.851562 " fill-opacity="1" fill-rule="evenodd"/></g></svg>